<?xml version="1.0" standalone="no"?>
<!DOCTYPE svg PUBLIC "-//W3C//DTD SVG 1.1//EN" "http://www.w3.org/Graphics/SVG/1.1/DTD/svg11.dtd" >
<svg>
<metadata>
Created by FontForge 20090914 at Sun Mar 17 16:21:41 2019
 By www-data
Copyright (c) 2013 by Bruno Mello. All rights reserved.
</metadata>
<defs>
<font id="KelsonSans-LightRU" horiz-adv-x="1046" >
  <font-face 
    font-family="Kelson Sans RU"
    font-weight="300"
    font-stretch="normal"
    units-per-em="2048"
    panose-1="2 0 5 0 0 0 0 0 0 0"
    ascent="1536"
    descent="-512"
    x-height="1190"
    cap-height="1581"
    bbox="-23 -462 1704 1929"
    underline-thickness="102"
    underline-position="-102"
    unicode-range="U+000D-U+E000"
  />
<missing-glyph horiz-adv-x="748" 
d="M68 0v1365h544v-1365h-544zM136 68h408v1229h-408v-1229z" />
    <glyph glyph-name=".notdef" horiz-adv-x="748" 
d="M68 0v1365h544v-1365h-544zM136 68h408v1229h-408v-1229z" />
    <glyph glyph-name="glyph1" horiz-adv-x="2048" 
 />
    <glyph glyph-name="glyph1" horiz-adv-x="2048" 
 />
    <glyph glyph-name="uni000D" unicode="&#xd;" horiz-adv-x="548" 
 />
    <glyph glyph-name="space" unicode=" " horiz-adv-x="514" 
 />
    <glyph glyph-name="exclam" unicode="!" horiz-adv-x="382" 
d="M123 68c0 22.667 7.83301 40.5 23.5 53.5s33 19.667 52 20s36.333 -6 52 -19s23.5 -31.167 23.5 -54.5c0 -22.667 -7.83301 -40.5 -23.5 -53.5s-33 -19.667 -52 -20s-36.333 6 -52 19s-23.5 31.167 -23.5 54.5zM139 248v1337h109v-1337h-109z" />
    <glyph glyph-name="quotedbl" unicode="&#x22;" horiz-adv-x="407" 
d="M72 1585h96l-10 -348h-84zM262 1585h96l-10 -348h-84z" />
    <glyph glyph-name="numbersign" unicode="#" horiz-adv-x="1265" 
d="M66 500l18 94h197l84 412h-197l18 92h197l94 465h101l-95 -465h432l95 465h98l-94 -463h200l-18 -94h-201l-84 -412h201l-18 -94h-199l-102 -500h-101l103 500h-433l-102 -500h-100l102 500h-196zM381 594h432l84 412h-432z" />
    <glyph glyph-name="dollar" unicode="$" horiz-adv-x="1032" 
d="M90 358l97.9971 -0.00585938c0 -96 26.833 -166 80.5 -210s134.834 -66 243.501 -66c130 0.666992 221.5 29.834 274.5 87.501s79.5 154.834 79.5 291.501c0 39.333 -4.16699 74.666 -12.5 105.999s-18.833 58 -31.5 80s-30.167 41.333 -52.5 58s-44.166 30 -65.499 40
s-48.666 18.667 -81.999 26s-63.166 12.833 -89.499 16.5s-59.166 7.5 -98.499 11.5c-46 4.66699 -87.167 13.334 -123.5 26.001s-71.833 32.667 -106.5 60s-61.667 66.333 -81 117s-29 111.334 -29 182.001c0 137.333 31.833 239 95.5 305s160.167 102.667 289.5 110v191
h86v-191c53.333 -2 100.666 -9.33301 141.999 -22s78.833 -32.167 112.5 -58.5s60.167 -62.5 79.5 -108.5s30.333 -101 33 -165h-98c-2 176 -104.667 264 -308 264c-56 0 -103.5 -5 -142.5 -15s-73.167 -26.833 -102.5 -50.5s-51 -57 -65 -100s-21 -96.167 -21 -159.5
c0 -37.333 3.16699 -70.5 9.5 -99.5s14.166 -53.333 23.499 -73s23.333 -37 42 -52s36 -26.667 52 -35s38.667 -15.666 68 -21.999s54.5 -11 75.5 -14s50.167 -6.5 87.5 -10.5l53 -6c115.333 -15.333 205 -59.166 269 -131.499s96 -166.166 96 -281.499
c0 -88 -9.33301 -162.667 -28 -224s-46.667 -109.333 -84 -144s-79.5 -60 -126.5 -76s-102.833 -25.667 -167.5 -29v-179h-86v177c-130 5.33301 -227.333 38.5 -292 99.5s-97 152.5 -97 274.5z" />
    <glyph glyph-name="percent" unicode="%" horiz-adv-x="1308" 
d="M61 1206v135.002c0 87.333 20.833 152.166 62.5 194.499s105.5 63.5 191.5 63.5c86.667 0 150.667 -20.833 192 -62.5s62 -106.834 62 -195.501v-135c0 -86.667 -20.833 -151 -62.5 -193s-105.5 -63 -191.5 -63c-86.667 0 -150.667 20.5 -192 61.5s-62 105.833 -62 194.5
zM143 1260c0 -86.667 10.667 -145.666 32 -176.999s68 -47 140 -47c68.667 0 114.5 16.167 137.5 48.5s34.5 89.833 34.5 172.5v29c0 44.667 -1.83301 80 -5.5 106s-11.667 48.667 -24 68s-29.833 32.666 -52.5 39.999s-52.667 11 -90 11
c-68.667 0 -114.5 -16.167 -137.5 -48.5s-34.5 -89.833 -34.5 -172.5v-30zM266 -1.99707l668 1622h94l-670 -1626zM719 246.003v135.002c0 87.333 20.833 152.166 62.5 194.499s105.5 63.5 191.5 63.5c86.667 0 150.667 -20.833 192 -62.5s62 -106.834 62 -195.501v-135
c0 -86.667 -20.833 -151 -62.5 -193s-105.5 -63 -191.5 -63c-86.667 0 -150.667 20.5 -192 61.5s-62 105.833 -62 194.5zM801 299.005c0 -86.667 10.667 -145.499 32 -176.499s68 -46.5 140 -46.5c68.667 0 114.5 16.167 137.5 48.5s34.5 89.833 34.5 172.5v29
c0 44.667 -1.83301 80 -5.5 106s-11.667 48.667 -24 68s-29.833 32.666 -52.5 39.999s-52.667 11 -90 11c-68.667 0 -114.5 -16.167 -137.5 -48.5s-34.5 -89.833 -34.5 -172.5v-31z" />
    <glyph glyph-name="ampersand" unicode="&#x26;" horiz-adv-x="1144" 
d="M106 444c0 52.667 5.83301 100.33 17.5 142.997s29 79.667 52 111s46.833 58 71.5 80s54.334 44 89.001 66c-63.333 34 -112.666 80.167 -147.999 138.5s-53 126.166 -53 203.499c0 114 35.5 208.333 106.5 283s163.167 112 276.5 112c56.667 0 106.5 -6.33301 149.5 -19
s81.667 -33.167 116 -61.5s60.5 -67.666 78.5 -117.999s27 -111.166 27 -182.499h-96c-3.33301 96.667 -25.833 168.667 -67.5 216s-110.834 71 -207.501 71c-91.333 0 -160.166 -29 -206.499 -87s-69.5 -128.667 -69.5 -212c0 -77.333 26.167 -146.166 78.5 -206.499
s116.166 -90.5 191.499 -90.5h539v-92h-160v-385c0 -42 0.666992 -75.833 2 -101.5s5.5 -55.167 12.5 -88.5s17 -58.5 30 -75.5s32.167 -30.5 57.5 -40.5s56 -12 92 -6v-104c-80.667 -8.66699 -141.834 3.33301 -183.501 36s-69.167 84 -82.5 154
c-86.667 -129.333 -189.667 -194 -309 -194c-124.667 0 -223.167 36.833 -295.5 110.5s-108.5 186.834 -108.5 339.501zM215 441.996c0 -110.667 25.833 -194.667 77.5 -252s124.167 -86 217.5 -86c76.667 0 142.667 31.333 198 94s83 136 83 220v381h-281
c-80 0 -149.167 -34.5 -207.5 -103.5s-87.5 -153.5 -87.5 -253.5z" />
    <glyph glyph-name="quotesingle" unicode="'" horiz-adv-x="235" 
d="M72 1585h96l-10 -348h-84z" />
    <glyph glyph-name="parenleft" unicode="(" horiz-adv-x="430" 
d="M119 256l-0.000976562 967.002c0 145.333 19 244.666 57 297.999s107 79.333 207 78v-88c-25.333 0 -47.166 -2.16699 -65.499 -6.5s-33.333 -12.333 -45 -24s-21 -24 -28 -37s-12.167 -31.833 -15.5 -56.5s-5.5 -48 -6.5 -70s-1.5 -52 -1.5 -90v-975
c0 -32.667 0.333008 -58.834 1 -78.501s2.16699 -40.834 4.5 -63.501s5.66602 -40.5 9.99902 -53.5s10.333 -26 18 -39s17.334 -22.667 29.001 -29s25.667 -11.5 42 -15.5s35.5 -6 57.5 -6v-88c-100 -1.33301 -169 24.834 -207 78.501s-57 153.167 -57 298.5z" />
    <glyph glyph-name="parenright" unicode=")" horiz-adv-x="448" 
d="M63 -33c22 0 41.166 1.99805 57.499 5.99805s30.333 9.16699 42 15.5s21.334 16 29.001 29s13.667 26 18 39s7.66602 30.833 9.99902 53.5s3.83301 43.834 4.5 63.501s1 45.834 1 78.501v975c0 38 -0.5 68 -1.5 90s-3.16699 45.333 -6.5 70s-8.5 43.5 -15.5 56.5
s-16.333 25.333 -28 37s-26.667 19.667 -45 24s-40.166 6.5 -65.499 6.5v88c100 1.33301 169.167 -24.667 207.5 -78s57.5 -152.666 57.5 -297.999v-967c0 -145.333 -19.167 -244.833 -57.5 -298.5s-107.5 -79.834 -207.5 -78.501v88z" />
    <glyph glyph-name="asterisk" unicode="*" horiz-adv-x="499" 
d="M59 1260c60.667 60.667 108.668 98.665 144.001 113.998l2 37c-33.333 10 -80.666 45.667 -141.999 107l70 71c59.333 -59.333 95.666 -107 108.999 -143h32c11.333 34.667 49 82.334 113 143.001l72 -69c-61.333 -61.333 -109.333 -99.666 -144 -114.999l-2 -37
c36.667 -12.667 84 -48 142 -106l-70 -72c-60 60 -96.333 107 -109 141h-34c-2 -6.66699 -5 -13.5 -9 -20.5s-8.83301 -14.5 -14.5 -22.5s-10.834 -15 -15.501 -21s-11 -13.5 -19 -22.5l-18 -20l-19 -20l-16 -16.5z" />
    <glyph glyph-name="plus" unicode="+" horiz-adv-x="858" 
d="M68 741v93h307v309h100v-309h305v-93h-305v-311h-100v311h-307z" />
    <glyph glyph-name="comma" unicode="," horiz-adv-x="299" 
d="M0 -203c45.333 24 75 55.499 89 94.499s18.333 102.5 13 190.5h103c0 -74 -4 -129.833 -12 -167.5s-23.167 -70.167 -45.5 -97.5s-58.5 -55.666 -108.5 -84.999z" />
    <glyph glyph-name="hyphen" unicode="-" horiz-adv-x="831" 
d="M125 598v92h592v-92h-592z" />
    <glyph glyph-name="period" unicode="." horiz-adv-x="327" 
d="M102 68c0 22.667 8 40.5 24 53.5s33.333 19.667 52 20s36 -6 52 -19s24 -31.167 24 -54.5c0 -22.667 -8 -40.5 -24 -53.5s-33.333 -19.667 -52 -20s-36 6 -52 19s-24 31.167 -24 54.5z" />
    <glyph glyph-name="slash" unicode="/" horiz-adv-x="739" 
d="M82 -23l471 1600h98l-471 -1600h-98z" />
    <glyph glyph-name="zero" unicode="0" horiz-adv-x="962" 
d="M106 387v823c0 130 31 226.667 93 290s157.333 95 286 95c129.333 0 224.833 -31 286.5 -93s92.5 -159.333 92.5 -292v-829c0 -135.333 -30.667 -234.333 -92 -297s-157 -94 -287 -94c-128.667 0 -224 32.833 -286 98.5s-93 165.167 -93 298.5zM205 381
c0 -38 2.16699 -71.168 6.5 -99.501s12.5 -55.666 24.5 -81.999s28.167 -47.666 48.5 -63.999s47.333 -29.333 81 -39s73.5 -14.5 119.5 -14.5c105.333 0 178.5 24.667 219.5 74s61.5 126.333 61.5 231v821c0 39.333 -2.16699 73.166 -6.5 101.499s-12.5 55 -24.5 80
s-28.333 45.167 -49 60.5s-47.667 27.333 -81 36s-73.333 13 -120 13c-106 0 -179.167 -22.833 -219.5 -68.5s-60.5 -118.5 -60.5 -218.5v-831z" />
    <glyph glyph-name="one" unicode="1" horiz-adv-x="808" 
d="M49 0v94h324v1387h-271v100h373v-1487h301v-94h-727z" />
    <glyph glyph-name="two" unicode="2" horiz-adv-x="1034" 
d="M100 1176c0 76 10.835 141.835 32.502 197.502s52.5 99.167 92.5 130.5s84.667 54.333 134 69s105 22 167 22c42 0 81.333 -3.83301 118 -11.5s73.334 -21.834 110.001 -42.501s68 -47.334 94 -80.001s47.167 -76.167 63.5 -130.5s24.5 -116.833 24.5 -187.5
c0 -62 -8.16699 -117.5 -24.5 -166.5s-38.333 -89.5 -66 -121.5s-59.334 -60.5 -95.001 -85.5s-73.334 -46.5 -113.001 -64.5l-118.5 -52c-39.333 -16.667 -76.833 -34.667 -112.5 -54s-67.334 -41 -95.001 -65s-49.667 -54.167 -66 -90.5s-24.5 -77.833 -24.5 -124.5v-215
h727v-104h-833v309c0 57.333 8.16699 108.5 24.5 153.5s38.333 82.333 66 112s59.5 56.167 95.5 79.5s74 43.833 114 61.5l119.5 52.5c39.667 17.333 77.5 36.833 113.5 58.5s67.833 46.167 95.5 73.5s49.667 61.5 66 102.5s24.5 87.833 24.5 140.5
c0 236 -104.667 354 -314 354c-108 0 -187.833 -28 -239.5 -84s-77.5 -135 -77.5 -237h-103z" />
    <glyph glyph-name="three" unicode="3" horiz-adv-x="968" 
d="M78 397l103.999 -0.000976562c0 -202 91.667 -303 275 -303c118.667 0 203.5 26.833 254.5 80.5s76.5 144.167 76.5 271.5c0 128 -26.667 224.167 -80 288.5s-142 96.5 -266 96.5h-90v43l363 607h-604v98h753v-14l-372 -643c56.667 -1.33301 107.5 -10.5 152.5 -27.5
s82.667 -39.333 113 -67s55.5 -61.167 75.5 -100.5s34.333 -81.166 43 -125.499s13 -92.5 13 -144.5c0 -164.667 -33.333 -283 -100 -355s-178.667 -108 -336 -108c-123.333 0 -216.666 32.667 -279.999 98s-95 167 -95 305z" />
    <glyph glyph-name="four" unicode="4" horiz-adv-x="1103" 
d="M-4 444l698 1139h129v-1102h162v-98h-162v-383h-102v383h-703zM129 481h592l6 977z" />
    <glyph glyph-name="five" unicode="5" horiz-adv-x="964" 
d="M82 387l96 0.00195312c0 -104 22.167 -178.5 66.5 -223.5s125.166 -67.5 242.499 -67.5c110.667 0 187.167 23 229.5 69s63.5 127.667 63.5 245v213c0 118 -19.167 201 -57.5 249s-111.166 72 -218.499 72h-381v635h696v-100h-592v-432h277
c131.333 0 227.333 -32.333 288 -97s91 -173 91 -325v-217c0 -148.667 -32 -254.834 -96 -318.501s-164.667 -95.5 -302 -95.5c-142 0 -244.667 31.667 -308 95s-95 162.666 -95 297.999z" />
    <glyph glyph-name="six" unicode="6" horiz-adv-x="978" 
d="M113 434v282.999c0 157.333 37.833 306.5 113.5 447.5s190.5 280.5 344.5 418.5h136l2 -8c-55.333 -35.333 -110.166 -81.666 -164.499 -138.999s-100.166 -112.833 -137.499 -166.5s-70 -106.834 -98 -159.501c51.333 34 128.666 51 231.999 51
c108.667 0 190.667 -35.167 246 -105.5s83 -185.166 83 -344.499v-277c0 -162.667 -30 -278 -90 -346s-156 -102 -288 -102c-66.667 0 -122.834 7 -168.501 21s-84.667 38 -117 72s-56 80 -71 138s-22.5 130.333 -22.5 217zM215 441.999
c0 -69.333 3.33105 -124.832 9.99805 -166.499s20 -78.334 40 -110.001s48.167 -53.834 84.5 -66.501s83.833 -19 142.5 -19c107.333 0 180.166 27 218.499 81s57.5 146.333 57.5 277v273c0 66.667 -3.16699 120.667 -9.5 162s-18.666 77.833 -36.999 109.5
s-44.166 54.334 -77.499 68.001s-76.666 21.167 -129.999 22.5c-108 0 -184.833 -28.167 -230.5 -84.5s-68.5 -147.5 -68.5 -273.5v-273z" />
    <glyph glyph-name="seven" unicode="7" horiz-adv-x="880" 
d="M27 1485v96h811v-37l-609 -1544h-106l586 1485h-682z" />
    <glyph glyph-name="eight" unicode="8" horiz-adv-x="1081" 
d="M82 446c0 106.667 15.333 195 46 265s81 122.333 151 157c-29.333 20.667 -52.833 41.667 -70.5 63s-33 54.333 -46 99s-19.5 99.334 -19.5 164.001c0 143.333 30.833 245.666 92.5 306.999s158.5 92 290.5 92s227.5 -30.167 286.5 -90.5s88.5 -165.166 88.5 -314.499
c0 -61.333 -6.33301 -113.833 -19 -157.5s-27.167 -76.167 -43.5 -97.5s-37.833 -42.333 -64.5 -63c71.333 -31.333 123.333 -81.333 156 -150s49 -160 49 -274c0 -61.333 -3.33301 -113.833 -10 -157.5s-19.667 -85.334 -39 -125.001s-45.5 -71.5 -78.5 -95.5
s-76.5 -43 -130.5 -57s-118.333 -21 -193 -21c-73.333 0 -137.333 8.83301 -192 26.5s-98 40.5 -130 68.5s-57.5 62.667 -76.5 104s-31.667 82 -38 122s-9.5 85 -9.5 135zM184 446c0 -39.333 1.99902 -74.166 5.99902 -104.499s13 -61.833 27 -94.5s33 -59.667 57 -81
s57.333 -39 100 -53s93.334 -21 152.001 -21c72 0 130.5 6.16699 175.5 18.5s80.667 33.166 107 62.499s44.333 65.333 54 108s14.5 97.667 14.5 165c0 66.667 -5.16699 122.167 -15.5 166.5s-28.833 82.5 -55.5 114.5s-63 55.167 -109 69.5s-104.333 21.833 -175 22.5h-2
c-58.667 0 -109 -6.83301 -151 -20.5s-74.833 -31.167 -98.5 -52.5s-42.167 -49.333 -55.5 -84s-21.833 -68 -25.5 -100s-5.5 -70.667 -5.5 -116zM245.999 1198c0 -56.667 3.5 -101.831 10.5 -135.498s20.667 -62.334 41 -86.001s48.166 -39.834 83.499 -48.501
s82.333 -13 141 -13c55.333 0 100.833 5.16699 136.5 15.5s63.834 27 84.501 50s35.167 50.5 43.5 82.5s12.5 72.333 12.5 121c0 63.333 -3.5 113.833 -10.5 151.5s-20.667 69.667 -41 96s-48 44.5 -83 54.5s-81.167 15 -138.5 15c-104.667 0 -177.5 -25.5 -218.5 -76.5
s-61.5 -126.5 -61.5 -226.5z" />
    <glyph glyph-name="nine" unicode="9" horiz-adv-x="978" 
d="M113 872l0.00195312 277.001c0 162.667 30.167 278 90.5 346s156.5 102 288.5 102c89.333 0 160.666 -13 213.999 -39s94 -72 122 -138s42 -156.333 42 -271v-283c0 -157.333 -37.833 -306.5 -113.5 -447.5s-190.5 -280.5 -344.5 -418.5h-136l-2 8
c55.333 35.333 110.166 81.666 164.499 138.999s100.166 112.833 137.499 166.5s70 106.834 98 159.501c-51.333 -34 -128.666 -51 -231.999 -51c-108.667 0 -190.667 35.167 -246 105.5s-83 185.166 -83 344.499zM215.002 872.001
c0 -66.667 3.1709 -120.668 9.50391 -162.001s18.666 -77.833 36.999 -109.5s44.166 -54.334 77.499 -68.001s76.666 -21.167 129.999 -22.5c108 0 184.833 28.167 230.5 84.5s68.5 147.5 68.5 273.5v273c0 69.333 -3.33301 124.833 -10 166.5
s-19.834 78.334 -39.501 110.001s-47.667 53.834 -84 66.501s-83.833 19 -142.5 19c-107.333 0 -180.333 -27 -219 -81s-58 -146.333 -58 -277v-273z" />
    <glyph glyph-name="colon" unicode=":" horiz-adv-x="327" 
d="M102 88c0 22.667 8 40.5 24 53.5s33.333 19.667 52 20s36 -6 52 -19s24 -31.167 24 -54.5c0 -22.667 -8 -40.5 -24 -53.5s-33.333 -19.667 -52 -20s-36 6 -52 19s-24 31.167 -24 54.5zM102 776c0 22.667 8 40.5 24 53.5s33.333 19.667 52 20s36 -6 52 -19
s24 -31.167 24 -54.5c0 -22.667 -8 -40.5 -24 -53.5s-33.333 -19.667 -52 -20s-36 6 -52 19s-24 31.167 -24 54.5z" />
    <glyph glyph-name="semicolon" unicode=";" horiz-adv-x="327" 
d="M25 -203c45.333 24 75 55.499 89 94.499s18.333 102.5 13 190.5h102c0 -74 -4 -129.833 -12 -167.5s-23.167 -70.167 -45.5 -97.5s-58.5 -55.666 -108.5 -84.999zM102 775.999c0 22.667 8 40.5 24 53.5s33.333 19.667 52 20s36 -6 52 -19s24 -31.167 24 -54.5
c0 -22.667 -8 -40.5 -24 -53.5s-33.333 -19.667 -52 -20s-36 6 -52 19s-24 31.167 -24 54.5z" />
    <glyph glyph-name="less" unicode="&#x3c;" horiz-adv-x="690" 
d="M102 657v35l402 381l61 -59l-350 -338v-2l352 -338l-63 -60z" />
    <glyph glyph-name="equal" unicode="=" horiz-adv-x="1003" 
d="M160 453v96h684v-96h-684zM160 799v100h684v-100h-684z" />
    <glyph glyph-name="greater" unicode="&#x3e;" horiz-adv-x="694" 
d="M127 336l352 338v2l-350 338l61 59l402 -381v-35l-402 -381z" />
    <glyph glyph-name="question" unicode="?" horiz-adv-x="911" 
d="M61 1243c0 122.667 31.833 212.666 95.5 269.999s157.5 86 281.5 86c63.333 0 118.333 -8.33301 165 -25s82.834 -37.5 108.501 -62.5s46.167 -56.667 61.5 -95s25.166 -74.5 29.499 -108.5s6.5 -72.667 6.5 -116v-135c0 -64 -7 -119.833 -21 -167.5
s-32.333 -85.834 -55 -114.501s-47.834 -54.667 -75.501 -78l-82.5 -67c-27.333 -21.333 -52.333 -45 -75 -71s-41 -60 -55 -102s-21 -91.333 -21 -148h-98c0 64 7.16699 119.833 21.5 167.5s32.833 85.834 55.5 114.501s47.834 54.5 75.501 77.5l82.5 66.5
c27.333 21.333 52.333 44.833 75 70.5s41.167 59.334 55.5 101.001s21.5 90.5 21.5 146.5v137c0 120.667 -20.167 204 -60.5 250s-111.833 69 -214.5 69c-97.333 0 -169 -19.5 -215 -58.5s-69 -108.167 -69 -207.5h-93zM299 67.999c0 22.667 7.83301 40.5 23.5 53.5
s33.167 19.667 52.5 20s36.833 -6 52.5 -19s23.5 -31.167 23.5 -54.5c0 -22.667 -7.83301 -40.5 -23.5 -53.5s-33.167 -19.667 -52.5 -20s-36.833 6 -52.5 19s-23.5 31.167 -23.5 54.5z" />
    <glyph glyph-name="at" unicode="@" horiz-adv-x="1327" 
d="M92 0l0.00195312 784c0 86.667 6 156.5 18 209.5s34.167 96.333 66.5 130s74 56.834 125 69.501s117.833 19 200.5 19h323c82.667 0 149.834 -6.5 201.501 -19.5s93.334 -36 125.001 -69s53.5 -74.5 65.5 -124.5s18 -115.333 18 -196v-572
c0 -80.667 -17.667 -138.667 -53 -174s-86 -53 -152 -53c-34 0 -63.833 5 -89.5 15s-45.334 23.167 -59.001 39.5s-23.834 32.333 -30.501 48s-11 31.5 -13 47.5c-14.667 -23.333 -40.167 -45 -76.5 -65s-79.833 -30 -130.5 -30c-166.667 0 -250 84.667 -250 254v226
c0 89.333 28 157 84 203s125 69 207 69h248v-563c0 -101.333 36.667 -152 110 -152c36.667 0 63 9.16699 79 27.5s24 51.5 24 99.5v563c0 50 -1.83301 92.333 -5.5 127s-10.834 64.334 -21.501 89.001s-23 44.167 -37 58.5s-33.5 25.666 -58.5 33.999
s-51.167 13.666 -78.5 15.999s-62.333 3.5 -105 3.5h-327c-63.333 0 -112.833 -3.66699 -148.5 -11s-66.167 -23 -91.5 -47s-42.5 -57 -51.5 -99s-13.5 -99 -13.5 -171v-751c0 -41.333 3.16699 -76.5 9.5 -105.5s17.833 -56.167 34.5 -81.5s41.667 -44.5 75 -57.5
s74.666 -19.5 123.999 -19.5h410v-103h-389c-124 0 -216.167 25.667 -276.5 77s-90.5 136.333 -90.5 255zM483.002 319c0 -60 12.667 -101.167 38 -123.5s69.333 -33.5 132 -33.5c57.333 0 99 17.5 125 52.5s39 92.5 39 172.5v328h-151c-122 0 -183 -59.333 -183 -178v-218z
" />
    <glyph glyph-name="A" unicode="A" horiz-adv-x="960" 
d="M18 0l406 1581h113l405 -1581h-108l-103 389h-506l-100 -389h-107zM250 485h459l-226 947h-2z" />
    <glyph glyph-name="B" unicode="B" horiz-adv-x="1038" 
d="M123 -4l1.99707 1585h301c140.667 0 243.834 -31.167 309.501 -93.5s98.5 -160.833 98.5 -295.5c0 -76 -14.333 -143.333 -43 -202s-70.334 -101.334 -125.001 -128.001c199.333 -34 299 -168.333 299 -403c0 -70 -4.66699 -129.5 -14 -178.5
s-24.666 -92.333 -45.999 -130s-50.666 -67.5 -87.999 -89.5s-82.666 -38.333 -135.999 -49s-118 -16 -194 -16h-364zM224.997 96.001l262 0.000976562c43.333 0 81.833 1.5 115.5 4.5s63.167 8.5 88.5 16.5s47 16.667 65 26s33.333 22.166 46 38.499
s22.667 32.166 30 47.499s13.166 35.5 17.499 60.5s7.33301 48.5 9 70.5s2.83398 50 3.50098 84c0 29.333 -0.833008 54.666 -2.5 75.999s-5.5 44.666 -11.5 69.999s-14.167 46.833 -24.5 64.5s-24.833 35.334 -43.5 53.001s-41 31.834 -67 42.501
s-58.167 19.334 -96.5 26.001s-81.5 10 -129.5 10h-262v-690zM224.997 889.002l189.001 0.00195312c118 2 201 28.167 249 78.5s72 125.166 72 224.499c0 109.333 -23.833 186.166 -71.5 230.499s-126.834 66.5 -237.501 66.5h-199z" />
    <glyph glyph-name="C" unicode="C" horiz-adv-x="1071" 
d="M121 508l-0.00292969 559.002c0 74.667 3.5 138.5 10.5 191.5s20.167 102.333 39.5 148s45.5 82.167 78.5 109.5s75.5 48.5 127.5 63.5s114.667 22.5 188 22.5c80.667 0 147.834 -8.33301 201.501 -25s96.334 -43.334 128.001 -80.001s54 -80.334 67 -131.001
s19.5 -113.334 19.5 -188.001h-96c0 58.667 -4.66699 107.667 -14 147s-25.666 73.5 -48.999 102.5s-56 50.167 -98 63.5s-95 20 -159 20c-45.333 0 -85.5 -3.83301 -120.5 -11.5s-64.5 -17.5 -88.5 -29.5s-44.5 -28.833 -61.5 -50.5s-30.167 -43.167 -39.5 -64.5
s-16.666 -48.666 -21.999 -81.999s-8.66602 -64.166 -9.99902 -92.499s-2 -63.5 -2 -105.5v-563c0 -44 0.666992 -80.667 2 -110s4.66602 -60.666 9.99902 -93.999s12.666 -60.333 21.999 -81s22.5 -41.334 39.5 -62.001s37.5 -36.5 61.5 -47.5s53.5 -20 88.5 -27
s75.167 -10.5 120.5 -10.5c52.667 0 97.5 4.5 134.5 13.5s67.167 21.667 90.5 38s42 38.833 56 67.5s23.833 59.334 29.5 92.001s9.5 73.667 11.5 123h94c-2.66699 -75.333 -10.5 -138 -23.5 -188s-34.833 -93.833 -65.5 -131.5s-72.667 -65.167 -126 -82.5
s-120.333 -26 -201 -26c-90 0 -164 10.167 -222 30.5s-103.333 53.166 -136 98.499s-55.167 98.666 -67.5 159.999s-18.5 139 -18.5 233z" />
    <glyph glyph-name="D" unicode="D" horiz-adv-x="1095" 
d="M145 0v1581h387c64 0 119.833 -4.5 167.5 -13.5s88.334 -23.5 122.001 -43.5s61.167 -43.667 82.5 -71s38.166 -62.166 50.499 -104.499s20.833 -87.166 25.5 -134.499s7 -104 7 -170v-522c0 -75.333 -4 -139.666 -12 -192.999s-21.833 -101.833 -41.5 -145.5
s-47 -78.334 -82 -104.001s-79 -45.334 -132 -59.001s-116.833 -20.5 -191.5 -20.5h-383zM248 99.999l279.999 0.00195312c38 0 72.333 2 103 6s57.834 9.16699 81.501 15.5s44.334 15.666 62.001 27.999s32.667 24.5 45 36.5s22.5 28.333 30.5 49s14.333 39.5 19 56.5
s8.16699 39.833 10.5 68.5s3.83301 53.834 4.5 75.501s1 50.5 1 86.5v527c0 47.333 -0.5 84.666 -1.5 111.999s-3.83301 58.666 -8.5 93.999s-11.834 63 -21.501 83s-23 41 -40 63s-38.167 38.5 -63.5 49.5s-56.5 20.167 -93.5 27.5s-79.833 11 -128.5 11h-280v-1389z" />
    <glyph glyph-name="E" unicode="E" horiz-adv-x="974" 
d="M143 0v1581h715v-94h-612v-594h551v-96h-551v-697h653v-100h-756z" />
    <glyph glyph-name="F" unicode="F" horiz-adv-x="950" 
d="M141 0v1581h744v-98h-641v-588h567v-100h-567v-795h-103z" />
    <glyph glyph-name="G" unicode="G" horiz-adv-x="1142" 
d="M117 516l0.00488281 552.999c0 65.333 2.5 121.5 7.5 168.5s13.833 91.167 26.5 132.5s30 75.5 52 102.5s50 50.167 84 69.5s74.667 33.333 122 42s102.666 13 165.999 13c86.667 0 158.667 -8.66699 216 -26s103 -45 137 -83s58.333 -83.167 73 -135.5
s23 -117.5 25 -195.5l-92 -2c-2 65.333 -8.66699 119 -20 161s-30.5 77.667 -57.5 107s-63.167 50.333 -108.5 63s-103 19 -173 19c-34 0 -65.333 -1.5 -94 -4.5s-54 -8.16699 -76 -15.5s-41.833 -15 -59.5 -23s-32.834 -19 -45.501 -33s-23.667 -27.333 -33 -40
s-16.833 -29.334 -22.5 -50.001s-10.334 -39.167 -14.001 -55.5s-6.33398 -37.833 -8.00098 -64.5s-2.66699 -50 -3 -70s-0.5 -46 -0.5 -78v-555c0 -32.667 0.333008 -59 1 -79s2.16699 -43.833 4.5 -71.5s5.66602 -50.167 9.99902 -67.5s10.666 -36.666 18.999 -57.999
s18.5 -38.5 30.5 -51.5s27 -26.333 45 -40s38.5 -24.167 61.5 -31.5s50 -13.333 81 -18s65.5 -7 103.5 -7c60.667 0 112.5 5.5 155.5 16.5s78 26.333 105 46s48.333 46.167 64 79.5s26.334 69.166 32.001 107.499s8.5 84.833 8.5 139.5v248h-362v92h454v-340
c0 -68.667 -3.83301 -127.667 -11.5 -177s-21.5 -94.666 -41.5 -135.999s-47.167 -74.5 -81.5 -99.5s-78 -44.333 -131 -58s-116.833 -20.5 -191.5 -20.5c-93.333 0 -170 10.167 -230 30.5s-106.667 53.333 -140 99s-56.333 99.334 -69 161.001s-19 140.167 -19 235.5z" />
    <glyph glyph-name="H" unicode="H" 
d="M143 0v1581h107v-690h553v690h102v-1581h-102v788h-553v-788h-107z" />
    <glyph glyph-name="I" unicode="I" horiz-adv-x="395" 
d="M143 0v1581h109v-1581h-109z" />
    <glyph glyph-name="J" unicode="J" horiz-adv-x="897" 
d="M16 379l98.998 -0.000976562c0 -36 1.83301 -67.333 5.5 -94s11.334 -53 23.001 -79s27.334 -47 47.001 -63s46.167 -28.833 79.5 -38.5s73 -14.5 119 -14.5s85.833 4.5 119.5 13.5s60.667 21 81 36s36.666 34.667 48.999 59s20.833 49.333 25.5 75
s7.33398 56.167 8.00098 91.5v1216h102v-1212c0 -131.333 -31.5 -227.666 -94.5 -288.999s-159.833 -92 -290.5 -92c-128.667 0 -223 31.833 -283 95.5s-90 162.167 -90 295.5z" />
    <glyph glyph-name="K" unicode="K" horiz-adv-x="968" 
d="M133 0v1581h109v-707h77l490 707h129l-526 -752l549 -829h-134l-503 766h-82v-766h-109z" />
    <glyph glyph-name="L" unicode="L" horiz-adv-x="907" 
d="M143 0v1581h103v-1487h612v-94h-715z" />
    <glyph glyph-name="M" unicode="M" horiz-adv-x="1191" 
d="M143 0v1581h113l340 -995l342 995h113v-1581h-105v913l12 416l-344 -969h-34l-344 969l14 -416v-913h-107z" />
    <glyph glyph-name="N" unicode="N" 
d="M141 2v1579h109l561 -1356h4l-18 563v793h108v-1579h-119l-546 1341h-4l14 -495v-846h-109z" />
    <glyph glyph-name="O" unicode="O" horiz-adv-x="1165" 
d="M121 506v571c0 76.667 3.83301 141.334 11.5 194.001s21.167 100.834 40.5 144.501s46.333 78.167 81 103.5s78.667 44.666 132 57.999s118 20 194 20c94.667 0 172 -9.66699 232 -29s106.667 -51.5 140 -96.5s56 -98.167 68 -159.5s18 -140.333 18 -237v-567
c0 -74.667 -3.83301 -138.5 -11.5 -191.5s-21.5 -101.5 -41.5 -145.5s-47.333 -78.833 -82 -104.5s-78.5 -45.5 -131.5 -59.5s-116.833 -21 -191.5 -21c-62.667 0 -117.5 4.5 -164.5 13.5s-87.5 23.333 -121.5 43s-62.167 43.167 -84.5 70.5s-40 61.166 -53 101.499
s-22.167 83.5 -27.5 129.5s-8 100 -8 162zM223 512c0 -44 0.504883 -79.0078 1.50488 -105.008s4 -56.333 9 -91s12 -62 21 -82s22.167 -41 39.5 -63s38.666 -38.833 63.999 -50.5s56.5 -21.334 93.5 -29.001s79.833 -11.5 128.5 -11.5c38 0 72.5 2.33301 103.5 7
s58 10.334 81 17.001s43.5 16.834 61.5 30.501s33 26.834 45 39.501s22.167 29.834 30.5 51.501s14.666 41.167 18.999 58.5s7.66602 40.333 9.99902 69s3.83301 53.667 4.5 75s1 49.333 1 84v559c0 46 -0.5 82.333 -1.5 109s-3.83301 57.5 -8.5 92.5s-11.667 62.333 -21 82
s-22.5 40.334 -39.5 62.001s-38.167 37.834 -63.5 48.501s-56.5 19.667 -93.5 27s-79.833 11 -128.5 11c-38 0 -72.333 -2.16699 -103 -6.5s-57.834 -9.66602 -81.501 -15.999s-44.334 -16 -62.001 -29s-32.667 -25.667 -45 -38s-22.5 -29.166 -30.5 -50.499
s-14.333 -40.666 -19 -57.999s-8.16699 -40.5 -10.5 -69.5s-3.83301 -54.667 -4.5 -77s-1 -51.5 -1 -87.5v-559z" />
    <glyph glyph-name="P" unicode="P" horiz-adv-x="989" 
d="M143 0v1581h381c68 0 124.333 -6.16699 169 -18.5s83.5 -34.666 116.5 -66.999s56.833 -77.5 71.5 -135.5s22 -131.667 22 -221v-138c0 -113.333 -14 -202.833 -42 -268.5s-68.833 -111.667 -122.5 -138s-125.167 -39.5 -214.5 -39.5h-272v-555h-109zM252 652.999
h271.999c108 0 181.167 25.333 219.5 76s57.5 140.667 57.5 270v129c0 54 -2 98.833 -6 134.5s-11.667 68.5 -23 98.5s-27.5 53.333 -48.5 70s-47.667 29.5 -80 38.5s-72.166 13.5 -119.499 13.5h-272v-830z" />
    <glyph glyph-name="Q" unicode="Q" horiz-adv-x="1161" 
d="M121 487l-0.00195312 612.998c0 58.667 2.5 109.667 7.5 153s13.833 84.166 26.5 122.499s30.167 70.166 52.5 95.499s50.333 47.5 84 66.5s74.334 32.667 122.001 41s103.167 12.5 166.5 12.5c76 0 140.667 -6.66699 194 -20s97.166 -32 131.499 -56
s61.333 -56.833 81 -98.5s33.167 -87.167 40.5 -136.5s11 -109.333 11 -180v-613c0 -78 -5.66699 -144.167 -17 -198.5s-30.666 -102.666 -57.999 -144.999s-65.333 -75.166 -114 -98.499s-109 -38.333 -181 -45c0.666992 -39.333 4.83398 -72.166 12.501 -98.499
s17.834 -47.666 30.501 -63.999s31.334 -28.833 56.001 -37.5s50.667 -14.334 78 -17.001s63 -4 107 -4v-103c-69.333 0 -126.5 4.5 -171.5 13.5s-84 25.333 -117 49s-57 56.334 -72 98.001s-23.167 94.834 -24.5 159.501c-72.667 0.666992 -134.834 8 -186.501 22
s-94.334 33.667 -128.001 59s-60.167 58.666 -79.5 99.999s-32.833 86.333 -40.5 135s-11.5 107 -11.5 175zM222.998 521.998c0 -36 0.332031 -65.0029 0.999023 -87.0029s2.16699 -47.333 4.5 -76s5.83301 -51.5 10.5 -68.5s11 -35.833 19 -56.5s18.167 -37 30.5 -49
s27.333 -24.333 45 -37s38.334 -22.167 62.001 -28.5s50.834 -11.5 81.501 -15.5s65 -6 103 -6c48.667 0 91.5 3.33301 128.5 10s68.167 15.167 93.5 25.5s46.5 26 63.5 47s30.167 40.833 39.5 59.5s16.333 45.334 21 80.001s7.5 65.334 8.5 92.001s1.5 63.334 1.5 110.001
v543c0 47.333 -0.5 84.333 -1.5 111s-3.83301 57.5 -8.5 92.5s-11.667 62 -21 81s-22.5 39.167 -39.5 60.5s-38.167 37 -63.5 47s-56.5 18.5 -93.5 25.5s-79.833 10.5 -128.5 10.5s-91.5 -3.5 -128.5 -10.5s-68.167 -15.5 -93.5 -25.5s-46.5 -25.667 -63.5 -47
s-30.333 -41.5 -40 -60.5s-16.834 -45.833 -21.501 -80.5s-7.5 -65.667 -8.5 -93s-1.5 -64.333 -1.5 -111v-543z" />
    <glyph glyph-name="R" unicode="R" horiz-adv-x="974" 
d="M143 0l0.00195312 1581h381c67.333 0 123.666 -7 168.999 -21s84.166 -38.5 116.499 -73.5s56 -82.5 71 -142.5s22.5 -135.333 22.5 -226v-121c0 -142 -24.167 -243.667 -72.5 -305s-125.833 -96.666 -232.5 -105.999l334 -586h-127l-324 584h-229v-584h-109z
M252.002 679.999h272c110 0 183.667 21.5 221 64.5s56 127.833 56 254.5v119c0 69.333 -3.33301 124.833 -10 166.5s-20 78 -40 109s-48.167 52.667 -84.5 65s-83.833 18.5 -142.5 18.5h-272v-797z" />
    <glyph glyph-name="S" unicode="S" horiz-adv-x="1062" 
d="M90 358l97.998 -0.00585938c0 -96 26.833 -166 80.5 -210s134.834 -66 243.501 -66c130 0.666992 221.5 29.834 274.5 87.501s79.5 154.834 79.5 291.501c0 39.333 -4.16699 74.666 -12.5 105.999s-18.833 58 -31.5 80s-30.167 41.333 -52.5 58s-44.166 30 -65.499 40
s-48.666 18.667 -81.999 26s-63.166 12.833 -89.499 16.5s-59.166 7.5 -98.499 11.5c-46 4.66699 -87.167 13.334 -123.5 26.001s-71.833 32.667 -106.5 60s-61.667 66.333 -81 117s-29 111.334 -29 182.001c0 146 35.667 251.833 107 317.5s180.333 99.167 327 100.5
c58.667 0 110.5 -5.66699 155.5 -17s86.333 -30 124 -56s67.167 -62.833 88.5 -110.5s33.333 -105.5 36 -173.5h-98c-2 176 -104.667 264 -308 264c-56 0 -103.5 -5 -142.5 -15s-73.167 -26.833 -102.5 -50.5s-51 -57 -65 -100s-21 -96.167 -21 -159.5
c0 -37.333 3.16699 -70.5 9.5 -99.5s14.166 -53.333 23.499 -73s23.333 -37 42 -52s36 -26.667 52 -35s38.667 -15.666 68 -21.999s54.5 -11 75.5 -14s50.167 -6.5 87.5 -10.5l53 -6c115.333 -15.333 205 -59.166 269 -131.499s96 -166.166 96 -281.499
c0 -76 -7.33301 -142.167 -22 -198.5s-34.834 -102 -60.501 -137s-58.5 -63 -98.5 -84s-82.167 -35.5 -126.5 -43.5s-95.5 -12 -153.5 -12c-140.667 1.33301 -245.834 32.5 -315.501 93.5s-104.5 154.5 -104.5 280.5z" />
    <glyph glyph-name="T" unicode="T" horiz-adv-x="794" 
d="M16 1485v96h762v-96h-329v-1485h-103v1485h-330z" />
    <glyph glyph-name="U" unicode="U" horiz-adv-x="1110" 
d="M123 512l-0.000976562 1069h104v-1069c0 -43.333 0.666992 -79.5 2 -108.5s4.5 -59.667 9.5 -92s12 -58.833 21 -79.5s21.333 -41 37 -61s34.834 -35.5 57.501 -46.5s50.334 -19.833 83.001 -26.5s70 -10 112 -10s79.167 3.33301 111.5 10s59.833 15.5 82.5 26.5
s41.834 26.5 57.501 46.5s28 40.333 37 61s16 47.167 21 79.5s8.16699 63 9.5 92s2 65.167 2 108.5v1069h105v-1069c0 -74.667 -3.33301 -137.667 -10 -189s-18.834 -99 -36.501 -143s-42.334 -78.667 -74.001 -104s-72.667 -45 -123 -59s-111.166 -21 -182.499 -21
s-132.166 7 -182.499 21s-91.333 33.667 -123 59s-56.334 60 -74.001 104s-29.834 91.667 -36.501 143s-10 114.333 -10 189z" />
    <glyph glyph-name="V" unicode="V" horiz-adv-x="960" 
d="M18 1581h113l205 -809l143 -610h2l142 608l206 811h113l-405 -1583h-113z" />
    <glyph glyph-name="W" unicode="W" horiz-adv-x="1556" 
d="M18 1581h113l170 -745l135 -652h4l293 1311h82l293 -1311h4l135 652l170 745h113l-367 -1583h-112l-166 727l-111 553l-108 -543l-168 -737h-113z" />
    <glyph glyph-name="X" unicode="X" horiz-adv-x="892" 
d="M18 0l365 784l-332 797h111l157 -371l127 -327l129 327l156 371h111l-332 -797l364 -784h-114l-146 309l-168 381l-172 -391l-141 -299h-115z" />
    <glyph glyph-name="Y" unicode="Y" horiz-adv-x="806" 
d="M-4 1581h119l145 -383l141 -407l144 407l149 383h119l-356 -907v-676h-111v676z" />
    <glyph glyph-name="Z" unicode="Z" horiz-adv-x="831" 
d="M29 0l618 1483h-528v98h686l-623 -1483h623v-98h-776z" />
    <glyph glyph-name="bracketleft" unicode="[" horiz-adv-x="575" 
d="M186 -233v1824h322v-90h-219v-1638h219v-96h-322z" />
    <glyph glyph-name="backslash" unicode="\" horiz-adv-x="688" 
d="M92 1575h113l405 -1577h-112z" />
    <glyph glyph-name="bracketright" unicode="]" horiz-adv-x="593" 
d="M86 -137h219v1638h-219v90h322v-1824h-322v96z" />
    <glyph glyph-name="asciicircum" unicode="^" horiz-adv-x="1105" 
d="M111 938l389 649h80l385 -649h-111l-315 547l-320 -547h-108z" />
    <glyph glyph-name="underscore" unicode="_" horiz-adv-x="901" 
d="M72 -4h762v-90h-762v90z" />
    <glyph glyph-name="grave" unicode="`" horiz-adv-x="409" 
d="M57 1577v6h115l100 -242v-10h-86z" />
    <glyph glyph-name="a" unicode="a" horiz-adv-x="991" 
d="M88 307c0 72.667 15.502 132.998 46.502 180.998s75.667 83.333 134 106s129.166 37.334 212.499 44.001c33.333 2.66699 68.333 4 105 4c55.333 0 114.666 -3 177.999 -9v172v10c0 100.667 -19.667 174.334 -59 221.001c-40.667 48 -107.667 72 -201 72
c-44.667 0 -82.334 -4 -113.001 -12s-57.5 -22.333 -80.5 -43s-39.833 -49.5 -50.5 -86.5s-16 -83.5 -16 -139.5h-99c0 128 28 222.167 84 282.5s147.667 90.5 275 90.5c122.667 0 213 -31 271 -93s87 -162 87 -300v-807h-86l-2 160
c-39.333 -64 -86.666 -108.333 -141.999 -133s-125.333 -37 -210 -37c-104 0 -185.667 25.667 -245 77s-89 131.333 -89 240zM190.002 304.998c0 -76 22 -131.499 66 -166.499s111.667 -52.5 203 -52.5c43.333 0 82.833 6.33301 118.5 19s64.834 29.167 87.501 49.5
s41.667 43.666 57 69.999s26.166 52.5 32.499 78.5s9.5 52 9.5 78v154c-72 7.33301 -137 11 -195 11c-102 0 -182.333 -11.333 -241 -34c-92 -35.333 -138 -104.333 -138 -207z" />
    <glyph glyph-name="b" unicode="b" horiz-adv-x="983" 
d="M113 438l0.000976562 1213h102v-564c27.333 47.333 66.166 81.5 116.499 102.5s103.833 31.5 160.5 31.5c134.667 0 231.334 -35.167 290.001 -105.5s88 -189.5 88 -357.5v-332c0 -156.667 -30.333 -269.5 -91 -338.5s-156.334 -103.5 -287.001 -103.5
c-67.333 0 -123.666 6.83301 -168.999 20.5s-84.333 37.5 -117 71.5s-56.334 80.5 -71.001 139.5s-22 133.167 -22 222.5zM213.001 436c0 -131.333 19.332 -222.501 57.999 -273.501s112.334 -76.5 221.001 -76.5c108 0 181 25.333 219 76s57 140.667 57 270v328
c0 67.333 -4 122.5 -12 165.5s-22.333 79.5 -43 109.5s-48.834 51.333 -84.501 64s-81.167 19 -136.5 19c-95.333 0 -165.666 -23.667 -210.999 -71s-68 -126.666 -68 -237.999v-373z" />
    <glyph glyph-name="c" unicode="c" horiz-adv-x="946" 
d="M102 438l-0.00195312 317.999c0 162 31.333 277.167 94 345.5s160.334 102.5 293.001 102.5c126.667 0 217.167 -27.833 271.5 -83.5s84.166 -142.5 89.499 -260.5h-96c-2 39.333 -7.33301 73.166 -16 101.499s-22.5 54 -41.5 77s-45.833 40.333 -80.5 52
s-77 17.5 -127 17.5c-106.667 0 -180.667 -26.667 -222 -80s-62 -144 -62 -272v-312c0 -65.333 3.83301 -119 11.5 -161s21.5 -78.5 41.5 -109.5s48 -53.333 84 -67s82.333 -20.5 139 -20.5c55.333 0 101.333 5.83301 138 17.5s64.834 29.834 84.501 54.501
s33.334 52.334 41.001 83.001s12.167 69 13.5 115h96c0 -125.333 -30.833 -218.333 -92.5 -279s-155.167 -91 -280.5 -91c-131.333 0 -227.333 35 -288 105s-91 185.667 -91 347z" />
    <glyph glyph-name="d" unicode="d" horiz-adv-x="1026" 
d="M111 426v387.001c0 266 126 399 378 399c63.333 0 117.166 -8.33301 161.499 -25s82.833 -43.667 115.5 -81v557h102v-1663h-90l-10 131c-62 -91.333 -161 -137 -297 -137c-127.333 0 -219.166 33.167 -275.499 99.5s-84.5 177.166 -84.5 332.499zM213 428.001
c0 -66.667 5.33203 -122.001 15.999 -166.001s27.667 -78.5 51 -103.5s50.833 -42.667 82.5 -53s71.167 -15.5 118.5 -15.5c101.333 2 174.166 29 218.499 81s66.5 128.667 66.5 230v396v11c0 112 -19 191.333 -57 238c-39.333 48 -112.666 72 -219.999 72
c-54.667 0 -100.167 -6.5 -136.5 -19.5s-64.666 -33.167 -84.999 -60.5s-34.5 -59.166 -42.5 -95.499s-12 -80.833 -12 -133.5v-381z" />
    <glyph glyph-name="e" unicode="e" horiz-adv-x="964" 
d="M109 438l0.00195312 322c0 161.333 30.167 277 90.5 347s156.166 105 287.499 105c135.333 0 230.666 -35.167 285.999 -105.5s83 -185.833 83 -346.5v-178h-649v-136c0 -128 19.833 -220 59.5 -276s113.167 -84 220.5 -84c53.333 0 97.666 5.66699 132.999 17
s62.333 28.333 81 51s31.5 47.5 38.5 74.5s10.5 59.5 10.5 97.5h92c0 -221.333 -118.333 -332 -355 -332c-131.333 0 -227.166 34 -287.499 102s-90.5 182 -90.5 342zM207.002 676h559v82c0 62.667 -3.5 114.5 -10.5 155.5s-20.167 78.667 -39.5 113
s-47.833 59.5 -85.5 75.5s-85.5 24 -143.5 24c-107.333 0 -180.833 -27.667 -220.5 -83s-59.5 -148.333 -59.5 -279v-88z" />
    <glyph glyph-name="f" unicode="f" horiz-adv-x="548" 
d="M121 0l-0.000976562 1167c0 155.333 30.333 267 91 335c54 60 135.667 90 245 90c14 0 28.333 -0.333008 43 -1v-90c-13.333 0.666992 -26 1 -38 1c-39.333 0 -72.666 -4 -99.999 -12c-35.333 -10.667 -63.333 -30.167 -84 -58.5s-35 -63.333 -43 -105
s-12 -95.5 -12 -161.5v-78h234v-92h-234v-995h-102z" />
    <glyph glyph-name="g" unicode="g" horiz-adv-x="970" 
d="M102 406v372c0 80.667 7.5 148.167 22.5 202.5s39 97.833 72 130.5s72.667 56.334 119 71.001s103.5 22.667 171.5 24c142 0 238.333 -49.667 289 -149v133h92v-1206c0 -160 -31.333 -274.167 -94 -342.5s-160.334 -102.5 -293.001 -102.5
c-113.333 0 -198.166 23.833 -254.499 71.5s-86.833 123.5 -91.5 227.5h96c3.33301 -69.333 22.833 -120.833 58.5 -154.5s99.5 -50.5 191.5 -50.5c110 0 185.333 26.667 226 80s61 143.666 61 270.999v153c-28 -52.667 -66.667 -89.667 -116 -111s-110.333 -32 -183 -32
c-125.333 0 -217.833 31.667 -277.5 95s-89.5 169 -89.5 317zM205 403c1.33301 -81.333 12.166 -144.667 32.499 -190s49.5 -76.5 87.5 -93.5s89.333 -25.5 154 -25.5c100 0 172.5 25.5 217.5 76.5s67.5 127.833 67.5 230.5v342c0 122.667 -20.5 214.5 -61.5 275.5
s-112.833 91.5 -215.5 91.5c-107.333 -2 -181.166 -26.667 -221.499 -74s-60.5 -134 -60.5 -260v-373z" />
    <glyph glyph-name="h" unicode="h" horiz-adv-x="966" 
d="M113 0v1581h102v-494c23.333 41.333 60.666 72.5 111.999 93.5s103.333 31.5 156 31.5c134 0 229.333 -34.167 286 -102.5s85 -185.5 85 -351.5v-758h-102v760c0 66.667 -3.66699 120.667 -11 162s-20.833 76.833 -40.5 106.5s-47 50.667 -82 63
s-80.167 18.5 -135.5 18.5c-93.333 0 -161.666 -23.5 -204.999 -70.5s-65 -123.833 -65 -230.5v-809h-100z" />
    <glyph glyph-name="i" unicode="i" horiz-adv-x="407" 
d="M129 1511c0 22.667 7.83301 40.498 23.5 53.498s33.167 19.5 52.5 19.5c0.666992 0 1 0.333008 1 1c18.667 0.666992 36 -5.66602 52 -18.999s23.667 -31.666 23 -54.999c0 -22.667 -7.83301 -40.5 -23.5 -53.5s-33.167 -19.667 -52.5 -20s-36.833 6 -52.5 19
s-23.5 31.167 -23.5 54.5zM158 -0.00195312v1208h100v-1208h-100z" />
    <glyph glyph-name="j" unicode="j" horiz-adv-x="421" 
d="M2 -279h7.00195c46.667 0 81 6.33301 103 19c23.333 13.333 40.166 39.833 50.499 79.5s15.5 101.167 15.5 184.5v1204h103v-1198c0 -71.333 -3.83301 -130 -11.5 -176s-21.667 -85.833 -42 -119.5s-48.833 -57.167 -85.5 -70.5c-30.667 -12 -68.334 -18 -113.001 -18
c-8.66699 0 -17.667 0.333008 -27 1v94zM152.002 1526c0 22.667 7.83496 40.5 23.502 53.5s33.167 19.833 52.5 20.5h1c18.667 0 35.667 -6.66699 51 -20c15.333 -12.667 23 -30.667 23 -54c0 -22.667 -7.83301 -40.5 -23.5 -53.5s-32.834 -19.833 -51.501 -20.5h-2
c-18.667 0 -35.334 6.66699 -50.001 20c-16 12.667 -24 30.667 -24 54z" />
    <glyph glyph-name="k" unicode="k" horiz-adv-x="897" 
d="M113 0v1581h104v-879h113l383 510h123l-420 -563l471 -649h-127l-428 596h-113v-596h-106z" />
    <glyph glyph-name="l" unicode="l" horiz-adv-x="499" 
d="M143 336v1245h103v-1251c0 -56 1.83301 -98.5 5.5 -127.5s13 -52.667 28 -71s34 -29.833 57 -34.5s56.833 -7 101.5 -7v-92c-18 -1.33301 -35 -2 -51 -2c-28.667 0 -54 2 -76 6c-34 6 -62.167 16.333 -84.5 31s-39.5 36.5 -51.5 65.5s-20.333 61.667 -25 98
s-7 82.833 -7 139.5z" />
    <glyph glyph-name="m" unicode="m" horiz-adv-x="1734" 
d="M152 0v1190h94l10 -96c57.333 78.667 155.666 118 294.999 118c84 0 152.833 -15.833 206.5 -47.5s91.834 -74.5 114.501 -128.5c45.333 69.333 95.5 116 150.5 140s119.833 36 194.5 36c72 0 132.167 -9.16699 180.5 -27.5s85.833 -47 112.5 -86
s45.5 -84.167 56.5 -135.5s16.5 -114.333 16.5 -189v-774h-102v776c0 66.667 -3.66699 120.5 -11 161.5s-21.333 75.667 -42 104s-48.667 48.166 -84 59.499s-81.333 17 -138 17c-192 0 -288 -103.667 -288 -311v-807h-103v776c0 59.333 -3.83301 108.833 -11.5 148.5
s-21.334 74.834 -41.001 105.501s-47.667 53 -84 67s-82.166 21 -137.499 21c-106 0 -180.333 -22.833 -223 -68.5s-64 -113.5 -64 -203.5v-846h-102z" />
    <glyph glyph-name="n" unicode="n" horiz-adv-x="1069" 
d="M162 0v1190h90l8 -127c62 99.333 162.333 149 301 149c138 0 233.667 -33.167 287 -99.5s80 -178.5 80 -336.5v-776h-103v776c0 134 -19 225.167 -57 273.5s-110.333 72.5 -217 72.5c-51.333 0 -96.333 -8.33301 -135 -25s-68.667 -39 -90 -67s-37 -58.333 -47 -91
s-15 -67 -15 -103v-836h-102z" />
    <glyph glyph-name="o" unicode="o" horiz-adv-x="962" 
d="M102 434v328c0 111.333 14 200 42 266s69 112.5 123 139.5s125.333 40.5 214 40.5c66.667 0 122.834 -7 168.501 -21s84.667 -38.167 117 -72.5s56 -80.833 71 -139.5s22.5 -131.667 22.5 -219v-322c0 -162.667 -30.167 -278 -90.5 -346s-156.5 -102 -288.5 -102
c-66.667 0 -122.834 7 -168.501 21s-84.667 38 -117 72s-56 80 -71 138s-22.5 130.333 -22.5 217zM205 442c0 -69.333 3.33203 -124.83 9.99902 -166.497s19.834 -78.334 39.501 -110.001s47.667 -53.834 84 -66.501s83.833 -19 142.5 -19c107.333 0 180.333 27 219 81
s58 146.333 58 277v318c0 55.333 -2.16699 101 -6.5 137s-12 69 -23 99s-27 53.167 -48 69.5s-47.667 28.833 -80 37.5s-72.166 13 -119.499 13c-55.333 0 -100.833 -6.33301 -136.5 -19s-63.834 -33.834 -84.501 -63.501s-35 -65.5 -43 -107.5s-12 -96 -12 -162v-318z" />
    <glyph glyph-name="p" unicode="p" horiz-adv-x="1017" 
d="M135 -373v1579h90l11 -131c62 91.333 160.667 137 296 137c127.333 0 219.333 -33.167 276 -99.5s85 -177.166 85 -332.499v-387c0 -266 -126.333 -399 -379 -399c-63.333 0 -117 8.33301 -161 25s-82.333 43.667 -115 81v-473h-103zM238 409.999l0.00195312 -11.999
c0 -110.667 18.667 -189.667 56 -237c39.333 -48.667 112.666 -73 219.999 -73c54.667 0 100.167 6.5 136.5 19.5s64.666 33.167 84.999 60.5s34.666 59.166 42.999 95.499s12.5 80.833 12.5 133.5v381c0 88 -10.333 157 -31 207s-49.667 84.333 -87 103
s-87.666 28 -150.999 28c-101.333 -2 -174 -29 -218 -81s-66 -128.667 -66 -230v-395z" />
    <glyph glyph-name="q" unicode="q" horiz-adv-x="987" 
d="M109 449l-0.00195312 321c0 156.667 30.333 269.5 91 338.5s156.334 103.5 287.001 103.5c67.333 0 123.666 -6.83301 168.999 -20.5s84.333 -37.5 117 -71.5s56.334 -80.5 71.001 -139.5s22 -133.167 22 -222.5v-1131h-102v492c-48 -83.333 -140.333 -125 -277 -125
c-135.333 0 -232.166 34 -290.499 102s-87.5 185.667 -87.5 353zM210.998 446c0 -67.333 4.00098 -122.167 12.001 -164.5s22.5 -78 43.5 -107s49 -49.333 84 -61s80.5 -17.5 136.5 -17.5c96 0 166.5 22.5 211.5 67.5s67.5 122.833 67.5 233.5v363
c0 131.333 -19.333 222.5 -58 273.5s-112.334 76.5 -221.001 76.5c-108 0 -181 -25.333 -219 -76s-57 -140.667 -57 -270v-318z" />
    <glyph glyph-name="r" unicode="r" horiz-adv-x="600" 
d="M123 0l-0.00195312 1208h92l6 -143c26 51.333 68.333 91 127 119c40 18.667 82.667 28 128 28c20.667 0 42.334 -2 65.001 -6v-96c-20 3.33301 -39.667 5 -59 5c-65.333 -0.666992 -120.666 -20.334 -165.999 -59.001c-60 -50.667 -89.667 -118.667 -89 -204l-2 -852
h-102z" />
    <glyph glyph-name="s" unicode="s" horiz-adv-x="909" 
d="M78 334l101.999 0.00195312c0 -161.333 94.333 -242 283 -242c90.667 0 159.334 21.167 206.001 63.5s70 102.5 70 180.5c0 28 -3 53.167 -9 75.5s-13.667 41 -23 56s-22.166 28.333 -38.499 40s-31.833 21 -46.5 28s-33.834 13.167 -57.501 18.5s-44 9.33301 -61 12
s-38.833 5.66699 -65.5 9l-13.5 1.5c-3 0.333008 -7 0.833008 -12 1.5s-9.5 1.33398 -13.5 2.00098c-38 4.66699 -69.833 9.83398 -95.5 15.501s-53.667 15.667 -84 30s-54.666 32 -72.999 53s-33.666 49.667 -45.999 86s-18.5 79.166 -18.5 128.499
c0 100 31.833 178.167 95.5 234.5s155.5 84.5 275.5 84.5c241.333 0 362 -105.667 362 -317h-100c-2 74.667 -23.5 130.167 -64.5 166.5s-106.167 54.5 -195.5 54.5s-155.833 -19.333 -199.5 -58s-65.5 -93 -65.5 -163c0 -26.667 2.66699 -50.667 8 -72
s11.666 -39.166 18.999 -53.499s18.5 -27.166 33.5 -38.499s28.333 -20 40 -26s28.667 -11.5 51 -16.5s40.166 -8.5 53.499 -10.5s33.333 -4.66699 60 -8c14 -2 24.667 -3.33301 32 -4c30 -4.66699 55 -8.83398 75 -12.501s43.833 -9.33398 71.5 -17.001
s50.5 -16.334 68.5 -26.001s37 -22.834 57 -39.501s35.667 -35.334 47 -56.001s20.833 -46.167 28.5 -76.5s11.5 -63.833 11.5 -100.5c0 -108 -32 -192.333 -96 -253s-159.667 -91 -287 -91c-256.667 0 -385 113.333 -385 340z" />
    <glyph glyph-name="t" unicode="t" horiz-adv-x="559" 
d="M131 336l0.000976562 1141l102 14v-283h248v-96h-248v-774c0 -56 4.33301 -101.167 13 -135.5s24 -60.833 46 -79.5c22 -18 48.667 -29.667 80 -35c17.333 -2.66699 37.666 -4.33398 60.999 -5.00098c18.667 0 39.667 1 63 3v-90c-27.333 -2.66699 -53 -4 -77 -4
c-94 0 -163 20.667 -207 62c-54.667 52 -81.667 146 -81 282z" />
    <glyph glyph-name="u" unicode="u" horiz-adv-x="1044" 
d="M135 418v772h103v-772c0 -134 19 -225.167 57 -273.5s110.333 -72.5 217 -72.5c51.333 0 96.333 8.33301 135 25s68.667 39 90 67s37 58.333 47 91s15 67 15 103v832h102v-1190h-90l-8 131c-62 -99.333 -162.333 -149 -301 -149c-138 0 -233.667 33.167 -287 99.5
s-80 178.5 -80 336.5z" />
    <glyph glyph-name="v" unicode="v" horiz-adv-x="765" 
d="M6 1190h113l131 -483l133 -553h2l133 553l131 483h113l-320 -1192h-116z" />
    <glyph glyph-name="w" unicode="w" horiz-adv-x="1245" 
d="M16 1190h107l137 -594l86 -446h2l230 1040h88l247 -1040h2l84 458l125 582h103l-254 -1192h-121l-139 594l-90 405l-88 -415l-132 -584h-114z" />
    <glyph glyph-name="x" unicode="x" horiz-adv-x="831" 
d="M18 0l334 618l-313 572h115l147 -272l113 -230l118 236l150 266h115l-322 -572l340 -618h-119l-164 309l-118 240l-127 -252l-156 -297h-113z" />
    <glyph glyph-name="y" unicode="y" horiz-adv-x="843" 
d="M31 1190h112l131 -483l162 -553h2l137 553l132 483h112l-393 -1419c-29.333 -106 -74.666 -175.667 -135.999 -209c-30.667 -16 -66.667 -24 -108 -24c-42 0 -89.667 8.66699 -143 26l35 90c40.667 -14 75.667 -21 105 -21c23.333 0 43 4.33301 59 13
c35.333 20 64.666 65.667 87.999 137l55 211z" />
    <glyph glyph-name="z" unicode="z" horiz-adv-x="884" 
d="M63 0v18l621 1078h-578v94h732v-21l-623 -1073h629v-96h-781z" />
    <glyph glyph-name="braceleft" unicode="{" horiz-adv-x="575" 
d="M84 684l0.000976562 80.0029c31.333 0 57.833 6.83301 79.5 20.5s37.5 32.834 47.5 57.501s17 49.334 21 74.001s6 53 6 85v373c0 113.333 22.167 195.666 66.5 246.999s119.5 73.666 225.5 66.999v-82c-39.333 5.33301 -72.5 3.33301 -99.5 -6
s-47.167 -25.666 -60.5 -48.999s-22.666 -49.333 -27.999 -78s-8 -63 -8 -103v-369c0 -22.667 -0.166992 -41 -0.5 -55s-2.5 -34.167 -6.5 -60.5s-9.5 -48.333 -16.5 -66s-17.833 -35.5 -32.5 -53.5s-32.334 -31.667 -53.001 -41c74 -29.333 111 -118.666 111 -267.999v-414
c0 -40 2.5 -73.833 7.5 -101.5s14.167 -52.834 27.5 -75.501s33.166 -38.334 59.499 -47.001s59.5 -10.334 99.5 -5.00098v-93c-106 -6.66699 -181.167 15.666 -225.5 66.999s-66.5 133.666 -66.5 246.999v420c0 152.667 -51.333 229 -154 229z" />
    <glyph glyph-name="bar" unicode="|" horiz-adv-x="466" 
d="M186 -211v1806h95v-1806h-95z" />
    <glyph glyph-name="braceright" unicode="}" horiz-adv-x="614" 
d="M72 -186c40 -5.33301 73.168 -3.66895 99.501 4.99805s46.166 24.334 59.499 47.001s22.5 47.834 27.5 75.501s7.5 61.5 7.5 101.5v414c0 149.333 37 238.666 111 267.999c-20.667 9.33301 -38.334 23 -53.001 41s-25.5 35.833 -32.5 53.5s-12.5 39.667 -16.5 66
s-6.16699 46.5 -6.5 60.5s-0.5 32.333 -0.5 55v369c0 40 -2.66699 74.333 -8 103s-14.666 54.667 -27.999 78s-33.5 39.666 -60.5 48.999s-60.167 11.333 -99.5 6v82c106 6.66699 181.333 -15.666 226 -66.999s67 -133.666 67 -246.999v-373c0 -32 1.83301 -60.333 5.5 -85
s10.5 -49.334 20.5 -74.001s25.833 -43.834 47.5 -57.501s48.167 -20.5 79.5 -20.5v-80c-102 0 -153 -76.333 -153 -229v-420c0 -113.333 -22.333 -195.666 -67 -246.999s-120 -73.666 -226 -66.999v93z" />
    <glyph glyph-name="asciitilde" unicode="~" horiz-adv-x="1191" 
d="M123 578c30 87.333 79.667 147.167 149 179.5s144 29.166 224 -9.50098l243 -117c26.667 -11.333 49.834 -18.666 69.501 -21.999s40.667 -2.66602 63 2.00098s43 18.5 62 41.5s36.167 54.833 51.5 95.5l76 -33c-30.667 -90.667 -76.5 -150.667 -137.5 -180
s-136.833 -23.333 -227.5 18l-241 119c-23.333 10.667 -46.333 17 -69 19s-45.5 -0.666992 -68.5 -8s-44.833 -22.833 -65.5 -46.5s-38.334 -54.834 -53.001 -93.501z" />
    <glyph glyph-name="cent" unicode="&#xa2;" horiz-adv-x="946" 
d="M102 438l-0.000976562 317.998c0 150.667 27.167 260.667 81.5 330s138.5 108 252.5 116v178h88v-178c114 -4.66699 195.5 -34.667 244.5 -90s76.167 -139.333 81.5 -252h-96c-2 39.333 -7.33301 73.166 -16 101.499s-22.5 54 -41.5 77s-45.833 40.333 -80.5 52
s-77 17.5 -127 17.5c-106.667 0 -180.667 -26.667 -222 -80s-62 -144 -62 -272v-312c0 -65.333 3.83301 -119 11.5 -161s21.5 -78.5 41.5 -109.5s48 -53.333 84 -67s82.333 -20.5 139 -20.5c55.333 0 101.333 5.83301 138 17.5s64.834 29.834 84.501 54.501
s33.334 52.334 41.001 83.001s12.167 69 13.5 115h96c0 -118.667 -27.333 -208.167 -82 -268.5s-137.334 -93.5 -248.001 -99.5v-174h-88v174c-115.333 6 -199.833 44.333 -253.5 115s-80.5 182.334 -80.5 335.001z" />
    <glyph glyph-name="sterling" unicode="&#xa3;" horiz-adv-x="1206" 
d="M82 0l-0.000976562 95.998h223v690h-205v99h205v327c0 131.333 30.5 226.666 91.5 285.999s156.833 89 287.5 89c128.667 0 224 -31.667 286 -95s93 -160 93 -290h-102c0 45.333 -3.5 83.833 -10.5 115.5s-20 61.334 -39 89.001s-47.333 48.334 -85 62.001
s-85.167 20.5 -142.5 20.5c-46 0 -85.5 -4.5 -118.5 -13.5s-59.5 -20.667 -79.5 -35s-35.667 -33.666 -47 -57.999s-19.166 -49 -23.499 -74s-6.83301 -55.5 -7.5 -91.5v-332h452v-99h-452v-690h682v-96h-1008z" />
    <glyph glyph-name="yen" unicode="&#xa5;" horiz-adv-x="806" 
d="M-4 1585h119l145 -387l141 -407l144 407l149 387h119l-313 -799h221v-86h-254l-10 -26v-127h264v-84h-264v-465h-111v465h-272v84h272v127l-10 26h-262v86h229z" />
    <glyph glyph-name="dieresis" unicode="&#xa8;" horiz-adv-x="782" 
d="M129 1507c0 22.667 7.83105 40.501 23.498 53.501s32.834 19.667 51.501 20s35.834 -6 51.501 -19s23.5 -31.167 23.5 -54.5c0 -29.333 -12.5 -50.333 -37.5 -63s-50 -12.834 -75 -0.500977s-37.5 33.5 -37.5 63.5zM501.998 1507c0 22.667 7.83301 40.499 23.5 53.499
s32.667 19.667 51 20s35.333 -6 51 -19s23.5 -31.167 23.5 -54.5c0 -22 -7.83301 -39.5 -23.5 -52.5s-32.667 -19.5 -51 -19.5s-35.333 6.33301 -51 19s-23.5 30.334 -23.5 53.001z" />
    <glyph glyph-name="copyright" unicode="&#xa9;" horiz-adv-x="1845" 
d="M134 788c0 101.333 16.833 200.668 50.5 298.001s81.834 184 144.501 260s144.667 137.167 246 183.5s214.666 69.5 339.999 69.5c102 0 196.5 -15.167 283.5 -45.5s161.167 -71.5 222.5 -123.5s113.666 -112.5 156.999 -181.5s75.166 -142.5 95.499 -220.5
s30.5 -158 30.5 -240s-10.167 -162 -30.5 -240s-52.166 -151.5 -95.499 -220.5s-95.666 -129.5 -156.999 -181.5s-135.5 -93.167 -222.5 -123.5s-181.5 -45.5 -283.5 -45.5c-125.333 0 -238.666 23.167 -339.999 69.5s-183.333 107.5 -246 183.5
s-110.834 162.667 -144.501 260s-50.5 196.666 -50.5 297.999zM223 788.502c0 -89.667 15 -177.5 45 -263.5s72.5 -162.833 127.5 -230.5s127.5 -122 217.5 -163s190.667 -61.5 302 -61.5c112.667 0 214.5 20.5 305.5 61.5s164.5 95.333 220.5 163s99.167 144.5 129.5 230.5
s45.5 173.833 45.5 263.5s-15.167 177.5 -45.5 263.5s-73.5 162.833 -129.5 230.5s-129.5 122 -220.5 163s-192.833 61.5 -305.5 61.5c-111.333 0 -212 -20.5 -302 -61.5s-162.5 -95.333 -217.5 -163s-97.5 -144.5 -127.5 -230.5s-45 -173.833 -45 -263.5zM555 649.002
l0.00292969 271.005c0 72 5 131 15 177s28.333 86.5 55 121.5s64.5 60.167 113.5 75.5s111.5 23 187.5 23c73.333 0 133.833 -7.66699 181.5 -23s85 -40.333 112 -75s45.833 -75.5 56.5 -122.5s16 -105.833 16 -176.5h-82c0 52.667 -3.83301 96.834 -11.5 132.501
s-21.334 68 -41.001 97s-48.667 50.5 -87 64.5s-86.5 21 -144.5 21c-31.333 0 -59.333 -1.66699 -84 -5s-46.5 -7.5 -65.5 -12.5s-35.667 -12.5 -50 -22.5s-26.5 -19.833 -36.5 -29.5s-18.333 -22.834 -25 -39.501s-11.834 -31.834 -15.501 -45.501s-6.5 -32.167 -8.5 -55.5
s-3.16699 -43.833 -3.5 -61.5s-0.5 -41.167 -0.5 -70.5v-215c0 -29.333 0.166992 -52.833 0.5 -70.5s1.5 -38.167 3.5 -61.5s4.83301 -41.833 8.5 -55.5s8.83398 -28.834 15.501 -45.501s15 -29.834 25 -39.501s22.167 -19.5 36.5 -29.5s31 -17.5 50 -22.5
s40.833 -9.16699 65.5 -12.5s52.667 -5 84 -5c48.667 0 90 4.5 124 13.5s61.5 21.167 82.5 36.5s37.167 36.666 48.5 63.999s19 56.166 23 86.499s6 67.833 6 112.5h84c0 -70 -5 -128.167 -15 -174.5s-28.333 -87 -55 -122s-64.334 -60.5 -113.001 -76.5
s-110.334 -24 -185.001 -24s-136.5 8 -185.5 24s-87 41.5 -114 76.5s-45.667 75.667 -56 122s-15.5 104.5 -15.5 174.5z" />
    <glyph glyph-name="guillemotleft" unicode="&#xab;" horiz-adv-x="755" 
d="M76 657l282 451h109l-281 -451l281 -452h-109zM297 657l283 451h108l-280 -451l280 -452h-108z" />
    <glyph glyph-name="registered" unicode="&#xae;" horiz-adv-x="970" 
d="M41 1257c0 133.333 39.167 238.5 117.5 315.5s177.833 115.5 298.5 115.5c121.333 0 222 -37.333 302 -112s120 -178 120 -310c0 -133.333 -39.167 -238.333 -117.5 -315s-177.833 -115 -298.5 -115c-121.333 0 -222 37.167 -302 111.5s-120 177.5 -120 309.5zM98 1262
c0 -116.667 33.833 -206.999 101.5 -270.999s153.5 -96 257.5 -96c48.667 0 94.5 7.33301 137.5 22s81.5 36.5 115.5 65.5s61 67.5 81 115.5s30 102.667 30 164c0 116 -33.833 206 -101.5 270s-153.167 96 -256.5 96c-48.667 0 -94.5 -7.33301 -137.5 -22
s-81.667 -36.334 -116 -65.001s-61.5 -67 -81.5 -115s-30 -102.667 -30 -164zM330 999.001v524.999h125c56.667 0 98 -12 124 -36s39 -65.333 39 -124c0 -50 -8.66699 -85.667 -26 -107s-45.333 -35.666 -84 -42.999l115 -215h-52l-114 211h-76v-211h-51zM381 1255
l74 -0.000976562c26.667 0 46 0.833008 58 2.5s23.167 6.16699 33.5 13.5s17 18.333 20 33s4.5 35.334 4.5 62.001c0 40.667 -7.66699 69.667 -23 87s-46.333 26 -93 26h-74v-224z" />
    <glyph glyph-name="acute" unicode="&#xb4;" horiz-adv-x="389" 
d="M90 1331v10l100 242h115v-6l-129 -246h-86z" />
    <glyph glyph-name="cedilla" unicode="&#xb8;" horiz-adv-x="602" 
d="M63 -348l47.999 59.001c14.667 -26.667 36.5 -48.334 65.5 -65.001s56.833 -25 83.5 -25c47.333 0 82.333 8 105 24s37.667 39.333 45 70c4 18 3.66699 36.5 -1 55.5s-14.667 36.833 -30 53.5s-37 28 -65 34s-63 5 -105 -3l43 194h74l-25 -117
c36.667 -0.666992 68.667 -8.16699 96 -22.5s48 -32.666 62 -54.999s23.5 -46 28.5 -71s5.5 -49.167 1.5 -72.5c-11.333 -60 -37.666 -104 -78.999 -132s-93.333 -40 -156 -36c-88 5.33301 -151.667 41.666 -191 108.999z" />
    <glyph glyph-name="guillemotright" unicode="&#xbb;" horiz-adv-x="755" 
d="M55 207l281 452l-281 451h109l282 -451l-282 -452h-109zM276 207l281 452l-281 451h109l283 -451l-283 -452h-109z" />
    <glyph glyph-name="circumflex" unicode="&#x2c6;" horiz-adv-x="727" 
d="M59 1360v8l256 234h64l256 -234v-8h-109l-180 162l-178 -162h-109z" />
    <glyph glyph-name="ring" unicode="&#x2da;" horiz-adv-x="655" 
d="M111 1378c0 66 21.5 118 64.5 156s94.5 57 154.5 57c59.333 0 111 -18.833 155 -56.5s66 -89.167 66 -154.5c0 -66.667 -21.5 -119.167 -64.5 -157.5s-95.833 -57.5 -158.5 -57.5c-63.333 0 -115.5 19 -156.5 57s-61.167 90 -60.5 156zM188 1378.5
c0 -34.333 12.502 -65.833 37.502 -94.5s59.833 -43 104.5 -43c46 0 81.833 14.333 107.5 43s38.167 60.167 37.5 94.5s-13.834 65.833 -39.501 94.5s-60.834 43 -105.501 43s-79.5 -14.333 -104.5 -43s-37.5 -60.167 -37.5 -94.5z" />
    <glyph glyph-name="tilde" unicode="&#x2dc;" horiz-adv-x="731" 
d="M90 1468c20.667 51.333 52.001 88.667 94.001 112s91.333 23 148 -1l92 -41c12 -4 20.5 -6.66699 25.5 -8s12.667 -3 23 -5s18.5 -2.33301 24.5 -1s13 3.66602 21 6.99902s14.667 9.16602 20 17.499s10.333 18.5 15 30.5l78 -18
c-6.66699 -32 -17.834 -58.167 -33.501 -78.5s-34.167 -34.166 -55.5 -41.499s-43.833 -10.166 -67.5 -8.49902s-47.5 7.5 -71.5 17.5l-90 41c-66 28.667 -115 11 -147 -53z" />
    <glyph glyph-name="afii10023" unicode="&#x401;" horiz-adv-x="974" 
d="M143 0v1585h715v-94h-612v-598h551v-96h-551v-697h653v-100h-756zM262 1778c0 22.667 7.83105 40.501 23.498 53.501s32.834 19.667 51.501 20s35.834 -6 51.501 -19s23.5 -31.167 23.5 -54.5c0 -29.333 -12.5 -50.333 -37.5 -63s-50 -12.834 -75 -0.500977
s-37.5 33.5 -37.5 63.5zM634.998 1778c0 22.667 7.83301 40.501 23.5 53.501s32.667 19.667 51 20s35.333 -6 51 -19s23.5 -31.167 23.5 -54.5c0 -29.333 -12.333 -50.333 -37 -63s-49.5 -12.834 -74.5 -0.500977s-37.5 33.5 -37.5 63.5z" />
    <glyph glyph-name="afii10051" unicode="&#x402;" horiz-adv-x="1214" 
d="M16 1485l0.00195312 96.0029h762v-96h-327v-436c23.333 41.333 60.666 72.5 111.999 93.5s103.333 31.5 156 31.5c134 0 229.333 -34.333 286 -103s85 -186 85 -352v-340c0 -71.333 -3.83301 -130 -11.5 -176s-21.667 -85.833 -42 -119.5s-48.833 -57.334 -85.5 -71.001
s-83.334 -19.167 -140.001 -16.5v94c50 -0.666992 86.667 5.66602 110 18.999s40.166 39.833 50.499 79.5s15.5 101.167 15.5 184.5v348c0 53.333 -2.16699 98.166 -6.5 134.499s-12.333 69.333 -24 99s-27.667 53 -48 70s-46 30 -77 39s-68.5 13.5 -112.5 13.5
c-91.333 0 -158.666 -22 -201.999 -66s-66 -116.667 -68 -218v-793h-103v1485h-330z" />
    <glyph glyph-name="afii10052" unicode="&#x403;" horiz-adv-x="813" 
d="M143 0v1581h621v-96h-518v-1485h-103zM399 1696v10l95 223h110v-6l-123 -227h-82z" />
    <glyph glyph-name="afii10053" unicode="&#x404;" horiz-adv-x="1103" 
d="M125 508v556.998c0 74 3.5 137.5 10.5 190.5s20.167 102.167 39.5 147.5s45.5 81.5 78.5 108.5s75.5 48 127.5 63s114.667 22.5 188 22.5c80 0 146.667 -8.16699 200 -24.5s95.666 -42.666 126.999 -78.999s53.333 -79.666 66 -129.999s19 -112.833 19 -187.5h-94
c0 58 -4.66699 106.5 -14 145.5s-25.833 73 -49.5 102s-56.334 50.167 -98.001 63.5s-93.834 20 -156.501 20c-45.333 0 -85.666 -3.83301 -120.999 -11.5s-65 -17.5 -89 -29.5s-44.5 -28.833 -61.5 -50.5s-30.167 -43.167 -39.5 -64.5s-16.5 -48.5 -21.5 -81.5
s-8.16699 -63.5 -9.5 -91.5s-2 -63 -2 -105v-221h437v-94h-437v-246c0 -34 0.333008 -62.667 1 -86s2.33398 -48.666 5.00098 -75.999s6.33398 -50.333 11.001 -69s11.167 -38.167 19.5 -58.5s18.5 -37 30.5 -50s26.667 -25.833 44 -38.5s37 -22.334 59 -29.001
s47.5 -12.167 76.5 -16.5s61.5 -6.5 97.5 -6.5c52 0 96.333 4.5 133 13.5s66.667 21.667 90 38s41.833 38.666 55.5 66.999s23.5 58.833 29.5 91.5s10 73.334 12 122.001h92c-2 -59.333 -7 -110.5 -15 -153.5s-21.333 -82.167 -40 -117.5s-43.5 -63.833 -74.5 -85.5
s-69.667 -38.334 -116 -50.001s-101.833 -17.5 -166.5 -17.5c-72 0 -133.667 7 -185 21s-93.833 33.833 -127.5 59.5s-60.167 60.334 -79.5 104.001s-32.833 91.667 -40.5 144s-11.5 115.5 -11.5 189.5z" />
    <glyph glyph-name="afii10054" unicode="&#x405;" horiz-adv-x="1062" 
d="M90 358l97.998 -0.00585938c0 -96 26.833 -166 80.5 -210s134.834 -66 243.501 -66c130 0.666992 221.5 29.834 274.5 87.501s79.5 154.834 79.5 291.501c0 39.333 -4.16699 74.666 -12.5 105.999s-18.833 58 -31.5 80s-30.167 41.333 -52.5 58s-44.166 30 -65.499 40
s-48.666 18.667 -81.999 26s-63.166 12.833 -89.499 16.5s-59.166 7.5 -98.499 11.5c-46 4.66699 -87.167 13.334 -123.5 26.001s-71.833 32.667 -106.5 60s-61.667 66.333 -81 117s-29 111.334 -29 182.001c0 146 35.667 251.833 107 317.5s180.333 99.167 327 100.5
c58.667 0 110.5 -5.66699 155.5 -17s86.333 -30 124 -56s67.167 -62.833 88.5 -110.5s33.333 -105.5 36 -173.5h-98c-2 176 -104.667 264 -308 264c-56 0 -103.5 -5 -142.5 -15s-73.167 -26.833 -102.5 -50.5s-51 -57 -65 -100s-21 -96.167 -21 -159.5
c0 -37.333 3.16699 -70.5 9.5 -99.5s14.166 -53.333 23.499 -73s23.333 -37 42 -52s36 -26.667 52 -35s38.667 -15.666 68 -21.999s54.5 -11 75.5 -14s50.167 -6.5 87.5 -10.5l53 -6c115.333 -15.333 205 -59.166 269 -131.499s96 -166.166 96 -281.499
c0 -76 -7.33301 -142.167 -22 -198.5s-34.834 -102 -60.501 -137s-58.5 -63 -98.5 -84s-82.167 -35.5 -126.5 -43.5s-95.5 -12 -153.5 -12c-140.667 1.33301 -245.834 32.5 -315.501 93.5s-104.5 154.5 -104.5 280.5z" />
    <glyph glyph-name="afii10055" unicode="&#x406;" horiz-adv-x="395" 
d="M143 0v1581h109v-1581h-109z" />
    <glyph glyph-name="afii10056" unicode="&#x407;" horiz-adv-x="395" 
d="M-23 1767c0 22.667 7.83105 40.501 23.498 53.501s32.834 19.667 51.501 20s35.834 -6 51.501 -19s23.5 -31.167 23.5 -54.5c0 -29.333 -12.5 -50.333 -37.5 -63s-50 -12.834 -75 -0.500977s-37.5 33.5 -37.5 63.5zM142.998 -1.99902v1585h109v-1585h-109zM280.998 1767
c0 22.667 7.83301 40.501 23.5 53.501s32.667 19.667 51 20s35.333 -6 51 -19s23.5 -31.167 23.5 -54.5c0 -29.333 -12.333 -50.333 -37 -63s-49.5 -12.834 -74.5 -0.500977s-37.5 33.5 -37.5 63.5z" />
    <glyph glyph-name="afii10057" unicode="&#x408;" horiz-adv-x="897" 
d="M16 379l98.998 -0.000976562c0 -36 1.83301 -67.333 5.5 -94s11.334 -53 23.001 -79s27.334 -47 47.001 -63s46.167 -28.833 79.5 -38.5s73 -14.5 119 -14.5s85.833 4.5 119.5 13.5s60.667 21 81 36s36.666 34.667 48.999 59s20.833 49.333 25.5 75
s7.33398 56.167 8.00098 91.5v1216h102v-1212c0 -131.333 -31.5 -227.666 -94.5 -288.999s-159.833 -92 -290.5 -92c-128.667 0 -223 31.833 -283 95.5s-90 162.167 -90 295.5z" />
    <glyph glyph-name="afii10058" unicode="&#x409;" horiz-adv-x="1470" 
d="M27 -2l5.99805 99.9961c28.667 -1.33301 55 1.66699 79 9s44.5 16.833 61.5 28.5s32.167 28.167 45.5 49.5s24.333 41.5 33 60.5s15.834 44 21.501 75s10 57.5 13 79.5s5 51 6 87s1.5 64.167 1.5 84.5s-0.166992 48.333 -0.5 84s-0.5 60.834 -0.5 75.501
c-1.33301 190 -2 473.333 -2 850h547v-661h180c66 0 121.833 -7.16699 167.5 -21.5s84.5 -38.666 116.5 -72.999s55.5 -80.5 70.5 -138.5s22.5 -130 22.5 -216v-29c0 -89.333 -7.33301 -163 -22 -221s-38.5 -103.167 -71.5 -135.5s-71.667 -54.666 -116 -66.999
s-100.166 -18.5 -167.499 -18.5h-289v1481h-332c0 -54 -0.166992 -132.5 -0.5 -235.5s-0.5 -196.5 -0.5 -280.5s0.333008 -162 1 -234c1.33301 -152 -1.33398 -259 -8.00098 -321c-22 -215.333 -95.333 -346.333 -220 -393
c-41.333 -15.333 -88.666 -21.666 -141.999 -18.999zM837.998 97.9961l179.999 0.000976562c58 0 105 6.33301 141 19s63.833 34.334 83.5 65.001s32.834 66.667 39.501 108s10 95.666 10 162.999v20c0 131.333 -18.833 222.166 -56.5 272.499s-110.167 75.5 -217.5 75.5
h-180v-723z" />
    <glyph glyph-name="afii10059" unicode="&#x40a;" horiz-adv-x="1429" 
d="M125 0l-0.000976562 1581h106v-659h457v659h109v-661h180c66 0 121.833 -7.16699 167.5 -21.5s84.5 -38.666 116.5 -72.999s55.5 -80.5 70.5 -138.5s22.5 -130 22.5 -216v-29c0 -89.333 -7.33301 -163 -22 -221s-38.5 -103.167 -71.5 -135.5
s-71.667 -54.666 -116 -66.999s-100.166 -18.5 -167.499 -18.5h-289v819h-457v-819h-106zM796.999 97.998l179.999 0.000976562c58 0 105 6.33301 141 19s63.833 34.334 83.5 65.001s32.834 66.667 39.501 108s10 95.666 10 162.999v20
c0 131.333 -18.833 222.166 -56.5 272.499s-110.167 75.5 -217.5 75.5h-180v-723z" />
    <glyph glyph-name="afii10060" unicode="&#x40b;" horiz-adv-x="1214" 
d="M16 1485v96.001h762v-96h-327v-436c23.333 41.333 60.666 72.5 111.999 93.5s103.333 31.5 156 31.5c134 0 229.333 -34.333 286 -103s85 -186 85 -352v-719h-103v721c0 53.333 -2.16699 98.166 -6.5 134.499s-12.333 69.333 -24 99s-27.667 53 -48 70s-46 30 -77 39
s-68.5 13.5 -112.5 13.5c-91.333 0 -158.666 -22 -201.999 -66s-66 -116.667 -68 -218v-793h-103v1485h-330z" />
    <glyph glyph-name="afii10061" unicode="&#x40c;" horiz-adv-x="968" 
d="M133 0l0.000976562 1581h107v-709h84c16.667 0 32.5 2.33301 47.5 7s28.333 10 40 16s23.334 15.667 35.001 29s21.334 24.833 29.001 34.5s16.334 24.5 26.001 44.5s16.834 35.5 21.501 46.5s11.334 28.833 20.001 53.5s14.667 42.167 18 52.5s9 29.166 17 56.499
c8 28 14.333 49.167 19 63.5l20 59.5c8.66699 25.333 16.167 44.833 22.5 58.5l24.5 51.5c10 20.667 19.833 36.334 29.5 47.001l34.5 36.5c13.333 13.667 27.166 23.5 41.499 29.5s30.333 11.5 48 16.5s37 7 58 6s43.167 -4.16699 66.5 -9.5l-16 -88
c-30.667 6.66699 -58.5 5.66699 -83.5 -3s-45.167 -20.5 -60.5 -35.5s-29.833 -36.667 -43.5 -65s-23.834 -52.833 -30.501 -73.5s-14.667 -47.334 -24 -80.001c-5.33301 -19.333 -9.33301 -33.333 -12 -42c-14.667 -47.333 -26.334 -83.5 -35.001 -108.5
s-20.834 -55.833 -36.501 -92.5s-33.334 -67.5 -53.001 -92.5s-41.834 -46.167 -66.501 -63.5l480 -827h-111l-461 774h-149v-774h-107zM436.001 1649v10l94 223h111v-6l-123 -227h-82z" />
    <glyph glyph-name="afii10062" unicode="&#x40e;" horiz-adv-x="897" 
d="M25 1581l107.996 -0.000976562l189 -551l151 -483h2l133 475l174 559h109l-424 -1368c-33.333 -104.667 -81.166 -173 -143.499 -205s-146.166 -30.667 -251.499 4l37 92c72.667 -26.667 128.334 -30.167 167.001 -10.5s68.334 64.834 89.001 135.501l55 191z
M206.996 1896l88 2c0 -50.667 15.333 -86.167 46 -106.5s72.667 -30.5 126 -30.5c52 0 92.5 10.333 121.5 31s43.833 56 44.5 106l88 -2c-2 -148.667 -86.667 -223 -254 -223c-169.333 0 -256 74.333 -260 223z" />
    <glyph glyph-name="afii10145" unicode="&#x40f;" 
d="M143 0v1581h105v-1485h551v1487h106v-1583h-332v-213h-100v213h-330z" />
    <glyph glyph-name="afii10017" unicode="&#x410;" horiz-adv-x="960" 
d="M18 0l406 1581h113l405 -1581h-108l-103 389h-506l-100 -389h-107zM250 485h459l-226 947h-2z" />
    <glyph glyph-name="afii10018" unicode="&#x411;" horiz-adv-x="997" 
d="M123 6l2.00098 1575h704v-96h-604v-580h226c87.333 0 159.666 -7 216.999 -21s105.833 -38.167 145.5 -72.5s68 -80.166 85 -137.499s25.5 -129.666 25.5 -216.999s-8.5 -159.833 -25.5 -217.5s-45.167 -103.834 -84.5 -138.501s-87.833 -59.167 -145.5 -73.5
s-130.167 -21.5 -217.5 -21.5h-328zM223.001 105.999l228.003 0.000976562c52 0 96.167 2 132.5 6s68.833 11.333 97.5 22s51.5 24.167 68.5 40.5s31.167 38.166 42.5 65.499s19 58 23 92s6 75.667 6 125c0 73.333 -4.83301 131.5 -14.5 174.5s-28.834 78 -57.501 105
s-65.834 45.167 -111.501 54.5s-107.834 14 -186.501 14h-226c-1.33301 -154 -2 -387 -2 -699z" />
    <glyph glyph-name="afii10019" unicode="&#x412;" horiz-adv-x="997" 
d="M123 4l2.00098 1577h342c139.333 0 241.666 -31.333 306.999 -94s98 -161 98 -295c0 -47.333 -5.83301 -93 -17.5 -137s-32.667 -85.167 -63 -123.5s-67.5 -63.5 -111.5 -75.5c43.333 -6.66699 80.333 -19 111 -37s54.5 -38.167 71.5 -60.5s30.167 -50.833 39.5 -85.5
s15.333 -67.167 18 -97.5s4 -67.166 4 -110.499c0 -87.333 -7.16699 -159 -21.5 -215s-39.5 -103 -75.5 -141s-84.167 -65 -144.5 -81s-137.5 -24 -231.5 -24h-328zM225.001 103.999l226.001 0.00292969c42.667 0 80.834 1.66699 114.501 5s63.167 8.83301 88.5 16.5
s47 16.167 65 25.5s33.167 22.166 45.5 38.499s22.166 32.166 29.499 47.499s13.166 35.5 17.499 60.5s7.16602 48.5 8.49902 70.5s2.33301 49.667 3 83c0.666992 66 -2.16602 118.5 -8.49902 157.5s-19.833 73.667 -40.5 104s-50.667 51.666 -90 63.999
s-91.333 18.5 -156 18.5h-303v-691zM225.002 889.002h230c116 0 198.167 25.667 246.5 77s72.5 126.666 72.5 225.999c0 108.667 -23.833 185.334 -71.5 230.001s-126.167 67 -235.5 67h-240z" />
    <glyph glyph-name="afii10020" unicode="&#x413;" horiz-adv-x="813" 
d="M143 0v1581h621v-96h-518v-1485h-103z" />
    <glyph glyph-name="afii10021" unicode="&#x414;" horiz-adv-x="1134" 
d="M10 94l89.9971 -0.000976562c40.667 36 74.334 78.333 101.001 127s45.834 102.334 57.501 161.001s19.334 112 23.001 160s5.5 104.333 5.5 169v870h686v-1487h112v-340h-96v246h-887v-246h-92v340zM218.997 93.999l653.002 0.000976562v1393h-485v-776
c0 -66.667 -1.66699 -123.334 -5 -170.001s-10.333 -98 -21 -154s-27.834 -108.167 -51.501 -156.5s-53.834 -93.833 -90.501 -136.5z" />
    <glyph glyph-name="afii10022" unicode="&#x415;" horiz-adv-x="974" 
d="M143 0v1581h715v-94h-612v-594h551v-96h-551v-697h653v-100h-756z" />
    <glyph glyph-name="afii10024" unicode="&#x416;" horiz-adv-x="1488" 
d="M10 0l501.992 823.001c-46.667 33.333 -83.334 78.833 -110.001 136.5s-53.334 132.5 -80.001 224.5c-4 12.667 -9.66699 33.334 -17 62.001c-8.66699 34 -15.667 59.833 -21 77.5s-14.166 40.334 -26.499 68.001s-25.5 48 -39.5 61s-32.5 23.5 -55.5 31.5
s-49.167 9 -78.5 3l-18 88c24.667 5.33301 47.834 8 69.501 8s40.834 -1.5 57.501 -4.5s32.834 -10.5 48.501 -22.5l39 -30c10.333 -8 21.333 -22.667 33 -44l26.5 -48.5c6 -11 13.833 -30.667 23.5 -59s16.334 -48.333 20.001 -60s10.167 -33.5 19.5 -65.5
c4.66699 -16.667 8.33398 -29 11.001 -37l19.5 -64c4.33301 -14 11 -34 20 -60s17 -45.833 24 -59.5l26.5 -50.5c10.667 -20 21.334 -35.333 32.001 -46s22.834 -21.667 36.501 -33s28.667 -19.333 45 -24s33.833 -7 52.5 -7h28v713h105v-713h24
c18.667 0 36.167 2.33301 52.5 7s31.5 12.667 45.5 24s26.333 22.166 37 32.499s21.334 25.833 32.001 46.5l26 50c6.66699 12.667 14.5 32.667 23.5 60l19.5 59.5l20 64.5c32 108 55.333 178 70 210c37.333 86 87 137.667 149 155c37.333 10 80.666 9.33301 129.999 -2
l-19 -88c-16.667 5.33301 -32.667 6.5 -48 3.5s-28.666 -6 -39.999 -9s-22.333 -9.66699 -33 -20s-19.5 -20 -26.5 -29s-14 -20.833 -21 -35.5s-12.833 -28.167 -17.5 -40.5s-9.5 -26.833 -14.5 -43.5s-9 -31.5 -12 -44.5s-6.66699 -27.667 -11 -44
s-8.16602 -29.833 -11.499 -40.5c-18 -60.667 -33.5 -108.834 -46.5 -144.501s-32.333 -74.834 -58 -117.501s-54.5 -75.667 -86.5 -99l500 -823h-127l-467 772h-90v-772h-105v772h-94l-465 -772h-129z" />
    <glyph glyph-name="afii10025" unicode="&#x417;" horiz-adv-x="991" 
d="M80 395l105.997 -0.00195312c0 -95.333 23.333 -170.333 70 -225s118.334 -82 215.001 -82c118 0 202.833 27.333 254.5 82s77.5 145.334 77.5 272.001c0 118 -29.167 208.667 -87.5 272s-144.5 95 -258.5 95h-113v98h113c28.667 0 56.334 2.16699 83.001 6.5
s54.5 12.833 83.5 25.5s54.167 29 75.5 49s38.833 46.833 52.5 80.5s20.5 72.167 20.5 115.5c0 98.667 -23.333 174.334 -70 227.001s-119.667 78.667 -219 78c-103.333 -0.666992 -175.166 -22.167 -215.499 -64.5s-62.5 -115.833 -66.5 -220.5h-103
c0 128 31 224.167 93 288.5s159.333 96.5 292 96.5c128 0 223.833 -34.833 287.5 -104.5s95.5 -168.5 95.5 -296.5c0 -80 -16.833 -148.5 -50.5 -205.5s-83.5 -98.5 -149.5 -124.5c159.333 -64.667 239 -199 239 -403c0 -164.667 -33.667 -284 -101 -358
s-179 -111 -335 -111c-124.667 0 -220.667 33.833 -288 101.5s-101 170.167 -101 307.5z" />
    <glyph glyph-name="afii10026" unicode="&#x418;" horiz-adv-x="1048" 
d="M143 0v1581h107v-795l-17 -579h5l561 1374h108v-1581h-108v850l14 510h-6l-545 -1360h-119z" />
    <glyph glyph-name="afii10027" unicode="&#x419;" horiz-adv-x="1048" 
d="M143 0v1581h107v-795l-17 -579h5l561 1374h108v-1581h-108v850l14 510h-6l-545 -1360h-119zM285 1915l87.998 2c0 -50.667 15 -85.5 45 -104.5s72.333 -28.5 127 -28.5c52.667 0 93.334 9.66699 122.001 29s43.334 54 44.001 104l88 -2
c-2 -148.667 -86.667 -223 -254 -223c-169.333 0 -256 74.333 -260 223z" />
    <glyph glyph-name="afii10028" unicode="&#x41a;" horiz-adv-x="968" 
d="M133 0l0.000976562 1581h107v-709h84c16.667 0 32.5 2.33301 47.5 7s28.333 10 40 16s23.334 15.667 35.001 29s21.334 24.833 29.001 34.5s16.334 24.5 26.001 44.5s16.834 35.5 21.501 46.5s11.334 28.833 20.001 53.5s14.667 42.167 18 52.5s9 29.166 17 56.499
c8 28 14.333 49.167 19 63.5l20 59.5c8.66699 25.333 16.167 44.833 22.5 58.5l24.5 51.5c10 20.667 19.833 36.334 29.5 47.001l34.5 36.5c13.333 13.667 27.166 23.5 41.499 29.5s30.333 11.5 48 16.5s37 7 58 6s43.167 -4.16699 66.5 -9.5l-16 -88
c-30.667 6.66699 -58.5 5.66699 -83.5 -3s-45.167 -20.5 -60.5 -35.5s-29.833 -36.667 -43.5 -65s-23.834 -52.833 -30.501 -73.5s-14.667 -47.334 -24 -80.001c-5.33301 -19.333 -9.33301 -33.333 -12 -42c-14.667 -47.333 -26.334 -83.5 -35.001 -108.5
s-20.834 -55.833 -36.501 -92.5s-33.334 -67.5 -53.001 -92.5s-41.834 -46.167 -66.501 -63.5l480 -827h-111l-461 774h-149v-774h-107z" />
    <glyph glyph-name="afii10029" unicode="&#x41b;" horiz-adv-x="1101" 
d="M10 -2l5.99902 99.999c28.667 -1.33301 55 1.66699 79 9s44.5 16.833 61.5 28.5s32.167 28.167 45.5 49.5s24.333 41.5 33 60.5s15.834 44 21.501 75s10 57.5 13 79.5s5 51 6 87s1.5 64.167 1.5 84.5s-0.166992 48.333 -0.5 84s-0.5 60.834 -0.5 75.501
c-1.33301 190 -2 473.333 -2 850h687v-1581h-103v1479h-477c0 -54 -0.166992 -132.333 -0.5 -235s-0.5 -195.834 -0.5 -279.501s0.333008 -161.5 1 -233.5c1.33301 -153.333 -1.66699 -261.666 -9 -324.999c-22.667 -216.667 -98 -347 -226 -391
c-40 -13.333 -85.333 -19 -136 -17z" />
    <glyph glyph-name="afii10030" unicode="&#x41c;" horiz-adv-x="1191" 
d="M143 0v1581h113l340 -995l342 995h113v-1581h-105v913l12 416l-344 -969h-34l-344 969l14 -416v-913h-107z" />
    <glyph glyph-name="afii10031" unicode="&#x41d;" 
d="M143 0v1581h107v-690h553v690h102v-1581h-102v788h-553v-788h-107z" />
    <glyph glyph-name="afii10032" unicode="&#x41e;" horiz-adv-x="1165" 
d="M121 506v571c0 76.667 3.83301 141.334 11.5 194.001s21.167 100.834 40.5 144.501s46.333 78.167 81 103.5s78.667 44.666 132 57.999s118 20 194 20c94.667 0 172 -9.66699 232 -29s106.667 -51.5 140 -96.5s56 -98.167 68 -159.5s18 -140.333 18 -237v-567
c0 -74.667 -3.83301 -138.5 -11.5 -191.5s-21.5 -101.5 -41.5 -145.5s-47.333 -78.833 -82 -104.5s-78.5 -45.5 -131.5 -59.5s-116.833 -21 -191.5 -21c-62.667 0 -117.5 4.5 -164.5 13.5s-87.5 23.333 -121.5 43s-62.167 43.167 -84.5 70.5s-40 61.166 -53 101.499
s-22.167 83.5 -27.5 129.5s-8 100 -8 162zM223 512c0 -44 0.504883 -79.0078 1.50488 -105.008s4 -56.333 9 -91s12 -62 21 -82s22.167 -41 39.5 -63s38.666 -38.833 63.999 -50.5s56.5 -21.334 93.5 -29.001s79.833 -11.5 128.5 -11.5c38 0 72.5 2.33301 103.5 7
s58 10.334 81 17.001s43.5 16.834 61.5 30.501s33 26.834 45 39.501s22.167 29.834 30.5 51.501s14.666 41.167 18.999 58.5s7.66602 40.333 9.99902 69s3.83301 53.667 4.5 75s1 49.333 1 84v559c0 46 -0.5 82.333 -1.5 109s-3.83301 57.5 -8.5 92.5s-11.667 62.333 -21 82
s-22.5 40.334 -39.5 62.001s-38.167 37.834 -63.5 48.501s-56.5 19.667 -93.5 27s-79.833 11 -128.5 11c-38 0 -72.333 -2.16699 -103 -6.5s-57.834 -9.66602 -81.501 -15.999s-44.334 -16 -62.001 -29s-32.667 -25.667 -45 -38s-22.5 -29.166 -30.5 -50.499
s-14.333 -40.666 -19 -57.999s-8.16699 -40.5 -10.5 -69.5s-3.83301 -54.667 -4.5 -77s-1 -51.5 -1 -87.5v-559z" />
    <glyph glyph-name="afii10033" unicode="&#x41f;" 
d="M143 -2v1583h762v-1581h-104v1485h-551v-1487h-107z" />
    <glyph glyph-name="afii10034" unicode="&#x420;" horiz-adv-x="989" 
d="M143 0v1581h381c68 0 124.333 -6.16699 169 -18.5s83.5 -34.666 116.5 -66.999s56.833 -77.5 71.5 -135.5s22 -131.667 22 -221v-138c0 -113.333 -14 -202.833 -42 -268.5s-68.833 -111.667 -122.5 -138s-125.167 -39.5 -214.5 -39.5h-272v-555h-109zM252 652.999
h271.999c108 0 181.167 25.333 219.5 76s57.5 140.667 57.5 270v129c0 54 -2 98.833 -6 134.5s-11.667 68.5 -23 98.5s-27.5 53.333 -48.5 70s-47.667 29.5 -80 38.5s-72.166 13.5 -119.499 13.5h-272v-830z" />
    <glyph glyph-name="afii10035" unicode="&#x421;" horiz-adv-x="1071" 
d="M121 508l-0.00292969 559.002c0 74.667 3.5 138.5 10.5 191.5s20.167 102.333 39.5 148s45.5 82.167 78.5 109.5s75.5 48.5 127.5 63.5s114.667 22.5 188 22.5c80.667 0 147.834 -8.33301 201.501 -25s96.334 -43.334 128.001 -80.001s54 -80.334 67 -131.001
s19.5 -113.334 19.5 -188.001h-96c0 58.667 -4.66699 107.667 -14 147s-25.666 73.5 -48.999 102.5s-56 50.167 -98 63.5s-95 20 -159 20c-45.333 0 -85.5 -3.83301 -120.5 -11.5s-64.5 -17.5 -88.5 -29.5s-44.5 -28.833 -61.5 -50.5s-30.167 -43.167 -39.5 -64.5
s-16.666 -48.666 -21.999 -81.999s-8.66602 -64.166 -9.99902 -92.499s-2 -63.5 -2 -105.5v-563c0 -44 0.666992 -80.667 2 -110s4.66602 -60.666 9.99902 -93.999s12.666 -60.333 21.999 -81s22.5 -41.334 39.5 -62.001s37.5 -36.5 61.5 -47.5s53.5 -20 88.5 -27
s75.167 -10.5 120.5 -10.5c52.667 0 97.5 4.5 134.5 13.5s67.167 21.667 90.5 38s42 38.833 56 67.5s23.833 59.334 29.5 92.001s9.5 73.667 11.5 123h94c-2.66699 -75.333 -10.5 -138 -23.5 -188s-34.833 -93.833 -65.5 -131.5s-72.667 -65.167 -126 -82.5
s-120.333 -26 -201 -26c-90 0 -164 10.167 -222 30.5s-103.333 53.166 -136 98.499s-55.167 98.666 -67.5 159.999s-18.5 139 -18.5 233z" />
    <glyph glyph-name="afii10036" unicode="&#x422;" horiz-adv-x="794" 
d="M16 1485v96h762v-96h-329v-1485h-103v1485h-330z" />
    <glyph glyph-name="afii10037" unicode="&#x423;" horiz-adv-x="897" 
d="M25 1581l107.996 -0.000976562l189 -551l151 -483h2l133 475l174 559h109l-424 -1368c-33.333 -104.667 -81.166 -173 -143.499 -205s-146.166 -30.667 -251.499 4l37 92c72.667 -26.667 128.334 -30.167 167.001 -10.5s68.334 64.834 89.001 135.501l55 191z" />
    <glyph glyph-name="afii10038" unicode="&#x424;" horiz-adv-x="1484" 
d="M121 610l-0.00488281 373.002c0 88.667 7.33301 161.5 22 218.5s38.334 101.667 71.001 134s71.334 54.666 116.001 66.999s101.334 18.5 170.001 18.5h186v166h105v-166h190c54 0 100.167 -3.83301 138.5 -11.5s73.333 -21 105 -40s56.834 -45.167 75.501 -78.5
s33 -75.333 43 -126s15 -111.334 15 -182.001v-373c0 -112.667 -13.833 -201.5 -41.5 -266.5s-68.167 -110.5 -121.5 -136.5s-124.666 -39 -213.999 -39h-190v-174h-105v174h-186c-67.333 0 -123.833 7 -169.5 21s-84.667 37.833 -117 71.5s-55.833 79 -70.5 136
s-22 128.167 -22 213.5zM222.995 608.002c0 -65.333 3.99902 -118.5 11.999 -159.5s22.333 -75.833 43 -104.5s48.834 -48.834 84.501 -60.501s81.5 -17.5 137.5 -17.5h186v1057h-186c-48 0 -88.167 -4.33301 -120.5 -13s-58.833 -21.167 -79.5 -37.5
s-36.667 -39.333 -48 -69s-19 -62.167 -23 -97.5s-6 -79.666 -6 -132.999v-365zM790.994 266.002l190.002 0.00195312c55.333 0 100.666 5.83301 135.999 17.5s63.5 31.834 84.5 60.501s35.5 63.5 43.5 104.5s12 94.167 12 159.5v365c0 67.333 -3.33301 121.166 -10 161.499
s-19.834 75.666 -39.501 105.999s-47.667 51.666 -84 63.999s-83.833 18.5 -142.5 18.5h-190v-1057z" />
    <glyph glyph-name="afii10039" unicode="&#x425;" horiz-adv-x="892" 
d="M18 0l365 784l-332 797h111l157 -371l127 -327l129 327l156 371h111l-332 -797l364 -784h-114l-146 309l-168 381l-172 -391l-141 -299h-115z" />
    <glyph glyph-name="afii10040" unicode="&#x426;" horiz-adv-x="1062" 
d="M143 0v1581h101v-1485h553v1485h102v-1485h113v-340h-97v244h-772z" />
    <glyph glyph-name="afii10041" unicode="&#x427;" horiz-adv-x="1028" 
d="M127 1001v580h102v-582c0 -61.333 3.33301 -111.333 10 -150s19.834 -73.667 39.501 -105s48.667 -54 87 -68s87.833 -21 148.5 -21c109.333 0 197.333 15 264 45v881h109v-1577h-109v600c-63.333 -30 -152 -45 -266 -45c-76.667 0 -140.334 9.16699 -191.001 27.5
s-90.167 47 -118.5 86s-48 84.5 -59 136.5s-16.5 116 -16.5 192z" />
    <glyph glyph-name="afii10042" unicode="&#x428;" horiz-adv-x="1591" 
d="M143 0v1581h105v-1485h497v1485h101v-1485h497v1485h107v-1581h-1307z" />
    <glyph glyph-name="afii10043" unicode="&#x429;" horiz-adv-x="1615" 
d="M143 0v1581h109v-1485h496v1485h100v-1485h498v1485h108v-1485h111v-340h-95v244h-1327z" />
    <glyph glyph-name="afii10044" unicode="&#x42a;" horiz-adv-x="1144" 
d="M-4 1485l0.000976562 96.001h416v-553h270c89.333 0 160.666 -13.167 213.999 -39.5s93.833 -72.5 121.5 -138.5s41.5 -156 41.5 -270v-138c0 -89.333 -7.16699 -162.833 -21.5 -220.5s-38 -102.834 -71 -135.501s-71.667 -55.167 -116 -67.5s-100.5 -18.5 -168.5 -18.5
h-379v1485h-307zM412.001 98.001l269.999 0.000976562c58.667 0 106.167 6.33301 142.5 19s64.333 34.5 84 65.5s32.834 66.833 39.501 107.5s10 95 10 163v129c0 131.333 -19 222.166 -57 272.499s-111 75.5 -219 75.5h-270v-832z" />
    <glyph glyph-name="afii10045" unicode="&#x42b;" horiz-adv-x="1380" 
d="M143 0l-0.000976562 1581h109v-553h272c88.667 0 159.667 -13.167 213 -39.5s94 -72.5 122 -138.5s42 -156 42 -270v-138c0 -89.333 -7.33301 -163 -22 -221s-38.5 -103.167 -71.5 -135.5s-71.667 -54.666 -116 -66.999s-100.166 -18.5 -167.499 -18.5h-381z
M251.999 97.999l272 -0.000976562c58 0 105 6.33301 141 19s64 34.334 84 65.001s33.333 66.667 40 108s10 95.666 10 162.999v129c0 130.667 -19 221.334 -57 272.001s-110.667 76 -218 76h-272v-832zM1139 -0.00195312v1581h106v-1581h-106z" />
    <glyph glyph-name="afii10046" unicode="&#x42c;" horiz-adv-x="987" 
d="M143 0l-0.000976562 1581h109v-553h272c88.667 0 159.667 -13.167 213 -39.5s94 -72.5 122 -138.5s42 -156 42 -270v-138c0 -89.333 -7.33301 -163 -22 -221s-38.5 -103.167 -71.5 -135.5s-71.667 -54.666 -116 -66.999s-100.166 -18.5 -167.499 -18.5h-381z
M251.999 97.999l272 -0.000976562c58 0 105 6.33301 141 19s64 34.334 84 65.001s33.333 66.667 40 108s10 95.666 10 162.999v129c0 130.667 -19 221.334 -57 272.001s-110.667 76 -218 76h-272v-832z" />
    <glyph glyph-name="afii10047" unicode="&#x42d;" horiz-adv-x="1103" 
d="M121 414l91.999 -0.00292969c2 -48.667 6 -89.167 12 -121.5s15.833 -62.833 29.5 -91.5s32 -51.167 55 -67.5s52.833 -29 89.5 -38s81 -13.5 133 -13.5c40 0 75.833 2.33301 107.5 7s59.334 12.334 83.001 23.001s44 22.334 61 35.001s31.167 29.334 42.5 50.001
s20.5 40.834 27.5 60.501s12.167 44.5 15.5 74.5s5.5 58 6.5 84s1.5 58 1.5 96v246h-437v94h437v221c0 42 -0.666992 77 -2 105s-4.5 58.5 -9.5 91.5s-12.333 60.167 -22 81.5s-23 42.833 -40 64.5s-37.5 38.5 -61.5 50.5s-53.667 21.833 -89 29.5
s-75.666 11.5 -120.999 11.5c-62.667 0 -114.834 -6.66699 -156.501 -20s-74.167 -34.5 -97.5 -63.5s-39.666 -63 -48.999 -102s-14 -87.5 -14 -145.5h-94c0 74.667 6.33301 137.167 19 187.5s34.5 93.666 65.5 129.999s73.167 62.666 126.5 78.999s120 24.5 200 24.5
c73.333 0 136 -7.5 188 -22.5s94.667 -36 128 -63s59.5 -63.167 78.5 -108.5s32.167 -94.5 39.5 -147.5s11 -116.5 11 -190.5v-557c0 -74 -3.83301 -137.333 -11.5 -190s-21.334 -100.667 -41.001 -144s-46.167 -78 -79.5 -104s-75.833 -45.833 -127.5 -59.5
s-113.5 -20.5 -185.5 -20.5c-80 0 -146.5 8.5 -199.5 25.5s-94.667 44.167 -125 81.5s-51.833 80.833 -64.5 130.5s-20 111.834 -22 186.501z" />
    <glyph glyph-name="afii10048" unicode="&#x42e;" horiz-adv-x="1501" 
d="M143 0v1579h107v-721h268v217c0 74.667 3.33301 137.834 10 189.501s19.167 99.5 37.5 143.5s43.5 78.833 75.5 104.5s73 45.5 123 59.5s110.667 21 182 21c59.333 0 111.166 -4.5 155.499 -13.5s82.333 -23.5 114 -43.5s57.667 -43.5 78 -70.5s36.5 -60.667 48.5 -101
s20.333 -83.333 25 -129s7 -99.167 7 -160.5v-569c0 -90.667 -6 -166.167 -18 -226.5s-33.667 -113.166 -65 -158.499s-75.166 -78.5 -131.499 -99.5s-127.5 -31.5 -213.5 -31.5c-69.333 0 -129 7.16699 -179 21.5s-91 34.666 -123 60.999s-57.333 61.333 -76 105
s-31.667 91.334 -39 143.001s-11 113.5 -11 185.5v250h-268v-756h-107zM621 511.998c0 -29.333 0.167969 -53.1611 0.500977 -71.4941s1.33301 -40.333 3 -66s4 -46.667 7 -63s7.16699 -34.833 12.5 -55.5s12.166 -37.334 20.499 -50.001s18.333 -26.334 30 -41.001
s25.5 -26.334 41.5 -35.001s34.167 -16.834 54.5 -24.501s43.5 -13.167 69.5 -16.5s54.667 -5 86 -5c34.667 0 66.334 2.33301 95.001 7s53.667 10.667 75 18s40.166 18 56.499 32s30 27.5 41 40.5s20.167 30.5 27.5 52.5s13 41.5 17 58.5s7.16699 39.667 9.5 68
s3.66602 52.333 3.99902 72s0.5 46.167 0.5 79.5v557c0 48 -0.333008 84 -1 108s-3 54.333 -7 91s-10.167 64 -18.5 82s-20.166 38.5 -35.499 61.5s-34.5 39.667 -57.5 50s-51.833 19.166 -86.5 26.499s-74.667 11 -120 11s-85.333 -3.83301 -120 -11.5
s-63.5 -16.5 -86.5 -26.5s-42.167 -26.5 -57.5 -49.5s-27 -43.333 -35 -61s-14 -45 -18 -82s-6.33301 -67.333 -7 -91s-1 -59.834 -1 -108.501v-557z" />
    <glyph glyph-name="afii10049" unicode="&#x42f;" horiz-adv-x="1017" 
d="M92 2l331.999 584c-106 9.33301 -183 44.666 -231 105.999s-72 162.333 -72 303v125c0 90 7.33301 164.833 22 224.5s38.334 106.834 71.001 141.501s71.5 59.167 116.5 73.5s100.833 21.5 167.5 21.5h379v-1579h-109v582h-227l-322 -582h-127zM222.999 997
c0 -125.333 18.333 -209.501 55 -252.501s110 -64.5 220 -64.5h270v797h-270c-59.333 0 -107 -6.16699 -143 -18.5s-63.667 -33.833 -83 -64.5s-32.333 -66.667 -39 -108s-10 -96.666 -10 -165.999v-123z" />
    <glyph glyph-name="afii10065" unicode="&#x430;" horiz-adv-x="991" 
d="M88 307c0 72.667 15.502 132.999 46.502 180.999s75.667 83.333 134 106s129.166 37.334 212.499 44.001s177.666 5 282.999 -5v178c1.33301 106.667 -18.334 183.834 -59.001 231.501s-107.667 71.5 -201 71.5c-45.333 0 -83 -3.66699 -113 -11
s-56.667 -20.833 -80 -40.5s-40.333 -47.667 -51 -84s-16 -82.5 -16 -138.5h-99c0 127.333 28 220.166 84 278.499s147.667 87.5 275 87.5c122.667 0 213 -31 271 -93s87 -162 87 -300v-813h-86l-2 160c-39.333 -64 -86.666 -108.333 -141.999 -133s-125.333 -37 -210 -37
c-104 0 -185.667 25.667 -245 77s-89 131.333 -89 240zM190.002 304.999c0 -76 22 -131.499 66 -166.499s111.667 -52.5 203 -52.5c43.333 0 82.833 6.33301 118.5 19s64.834 29.167 87.501 49.5s41.667 43.666 57 69.999s26.166 52.5 32.499 78.5s9.5 52 9.5 78v154
c-198.667 20 -344 12.333 -436 -23s-138 -104.333 -138 -207z" />
    <glyph glyph-name="afii10066" unicode="&#x431;" horiz-adv-x="960" 
d="M102 440l-0.000976562 659.996c0 51.333 2.5 98.333 7.5 141s11.167 79.667 18.5 111s17.833 59.5 31.5 84.5s26.667 45.833 39 62.5s28.833 31.334 49.5 44.001s38.5 22.334 53.5 29.001s35.167 12.334 60.5 17.001s46 7.83398 62 9.50098s37.667 3.5 65 5.5l40 3.5
c19.333 1.66699 32.833 3 40.5 4s19.334 2.83301 35.001 5.5s27.834 5.83398 36.501 9.50098l31 13.5c12 5.33301 22.667 12 32 20s18.333 17.333 27 28l64 -72c-25.333 -28 -56 -50.333 -92 -67s-67.333 -27.5 -94 -32.5s-62.334 -9.5 -107.001 -13.5
c-28.667 -1.33301 -49 -2.5 -61 -3.5s-29.5 -3.5 -52.5 -7.5s-42.167 -10.333 -57.5 -19s-29.333 -19.667 -42 -33c-56 -58 -84 -171.333 -84 -340v-56c27.333 47.333 66 81.5 116 102.5s103.333 31.5 160 31.5c134 0 230.333 -35.333 289 -106s88 -189.667 88 -357v-287
c0 -156.667 -30.167 -269.834 -90.5 -339.501s-155.833 -104.5 -286.5 -104.5c-66.667 0 -122.667 6.83301 -168 20.5s-84.333 37.5 -117 71.5s-56.5 80.667 -71.5 140s-22.5 134 -22.5 224zM204.999 437.996c0 -133.333 19.001 -225.331 57.001 -275.998s111 -76 219 -76
s181.167 25.667 219.5 77s57.5 141.666 57.5 270.999v283c0 132.667 -19.167 225.5 -57.5 278.5s-111.5 79.5 -219.5 79.5c-94.667 0 -164.334 -23.333 -209.001 -70s-67 -126.334 -67 -239.001v-328z" />
    <glyph glyph-name="afii10067" unicode="&#x432;" horiz-adv-x="923" 
d="M113 -8v1204h348c107.333 0 190.166 -24.667 248.499 -74s87.5 -123.666 87.5 -222.999c0 -58 -11.167 -110.667 -33.5 -158s-58.5 -78.666 -108.5 -93.999c27.333 -4.66699 51.333 -11.667 72 -21s37.334 -21.833 50.001 -37.5s23 -31.334 31 -47.001
s13.833 -35.334 17.5 -59.001s6 -44.834 7 -63.501s1.5 -42.334 1.5 -71.001c0 -87.333 -11.5 -156.166 -34.5 -206.499s-62.5 -87.833 -118.5 -112.5s-133.333 -37 -232 -37h-336zM217 86.001l232 -0.00195312c50.667 0 93.167 3.83301 127.5 11.5s61.333 17.5 81 29.5
s34.667 29.833 45 53.5s16.833 46.834 19.5 69.501s4.33398 53.334 5.00098 92.001c1.33301 46.667 -0.333984 84 -5.00098 112s-14.667 53.167 -30 75.5s-38 38 -68 47s-69.333 13.5 -118 13.5h-289v-504zM217 679.999h234c87.333 0 149.333 18 186 54s55 88.333 55 157
c0 76.667 -18 131 -54 163s-95 48 -177 48h-244v-422z" />
    <glyph glyph-name="afii10068" unicode="&#x433;" horiz-adv-x="712" 
d="M125 0v1190h549v-98h-447v-1092h-102z" />
    <glyph glyph-name="afii10069" unicode="&#x434;" horiz-adv-x="1034" 
d="M23 94h92c33.333 29.333 62 63.666 86 102.999s42.333 78 55 116s22.5 82.167 29.5 132.5s11.333 94.333 13 132s2.5 82.834 2.5 135.501v477h598v-1096h109v-321h-86v227h-809v-227h-90v321zM233 94l566.001 0.00195312v1004h-398v-385
c0 -65.333 -1.83301 -121.833 -5.5 -169.5s-10.834 -99.334 -21.501 -155.001s-27.667 -107.834 -51 -156.501s-53.333 -94.667 -90 -138z" />
    <glyph glyph-name="afii10070" unicode="&#x435;" horiz-adv-x="964" 
d="M109 432l0.00195312 322.001c0 161.333 30.167 277 90.5 347s156.166 105 287.499 105c135.333 0 230.666 -35.167 285.999 -105.5s83 -185.833 83 -346.5v-179h-649v-135c0 -128 19.833 -220 59.5 -276s113.167 -84 220.5 -84c53.333 0 97.666 5.66699 132.999 17
s62.333 28.166 81 50.499s31.5 47 38.5 74s10.5 59.5 10.5 97.5h92c0 -220.667 -118.333 -331 -355 -331c-131.333 0 -227.166 34 -287.499 102s-90.5 182 -90.5 342zM207.002 670.001h559v82c0 62.667 -3.5 114.5 -10.5 155.5s-20.167 78.667 -39.5 113
s-47.833 59.5 -85.5 75.5s-85.5 24 -143.5 24c-107.333 0 -180.833 -27.667 -220.5 -83s-59.5 -148.333 -59.5 -279v-88z" />
    <glyph glyph-name="afii10072" unicode="&#x436;" horiz-adv-x="1337" 
d="M16 0l-0.00292969 10.002l392 631c-18.667 9.33301 -34.834 20.666 -48.501 33.999s-25.667 29.333 -36 48s-18.5 35.167 -24.5 49.5s-13.667 34.666 -23 60.999s-16.666 46.166 -21.999 59.499c-3.33301 9.33301 -6.83301 20.5 -10.5 33.5s-7 24.333 -10 34l-10.5 33.5
c-4 12.667 -8.16699 23.334 -12.5 32.001s-9.66602 18 -15.999 28s-13.166 17.5 -20.499 22.5s-16.5 10.333 -27.5 16s-22.833 8 -35.5 7l-45 -3.5l-11 94c21.333 3.33301 41 5 59 5s34 -1.16699 48 -3.5s27.333 -6.83301 40 -13.5s23.334 -13.5 32.001 -20.5
s17.334 -16.5 26.001 -28.5s15.667 -23 21 -33s11.166 -22.833 17.499 -38.5s11.5 -29.334 15.5 -41.001l15.5 -44l16.5 -44.5c4 -10 9.16699 -24 15.5 -42l15 -43c3.66699 -10.667 8.83398 -23.667 15.501 -39s13 -27.666 19 -36.999s13.833 -19.333 23.5 -30
s19.5 -18.834 29.5 -24.501s22.167 -10.5 36.5 -14.5s29.833 -6 46.5 -6h71v498h95v-498h75c21.333 0 40.666 3.66699 57.999 11s31.333 15.333 42 24s21.167 22.667 31.5 42s18 34.833 23 46.5s12 30.667 21 57s15.5 44.833 19.5 55.5l16.5 44.5l15.5 44
c4 11.667 9.16699 25.334 15.5 41.001s12.166 28.5 17.499 38.5s12.333 21 21 33s17.334 21.5 26.001 28.5s19.167 13.833 31.5 20.5s25.5 11.167 39.5 13.5s30 3.5 48 3.5s37.333 -1.66699 58 -5l-10 -94c-28.667 5.33301 -53 5.33301 -73 0s-36.167 -16.5 -48.5 -33.5
s-21.5 -32.5 -27.5 -46.5s-13 -35 -21 -63s-14.333 -48 -19 -60c-6 -14.667 -14.833 -39 -26.5 -73s-21 -59.167 -28 -75.5s-18.667 -34.833 -35 -55.5s-35.5 -36.667 -57.5 -48l385 -631v-10h-113l-358 596h-127v-596h-99v596h-120l-361 -596h-117z" />
    <glyph glyph-name="afii10073" unicode="&#x437;" horiz-adv-x="882" 
d="M82 293l96.0029 -0.000976562c0 -84 20.167 -141.5 60.5 -172.5s102.166 -46.5 185.499 -46.5c84.667 0 150.5 19 197.5 57s70.5 103 70.5 195s-22 160.667 -66 206s-112.667 68 -206 68h-129v90h127c73.333 0 131.833 17.5 175.5 52.5s65.5 89.167 65.5 162.5
c0 139.333 -78.333 209 -235 209c-80.667 0 -139.167 -12.833 -175.5 -38.5s-56.5 -77.5 -60.5 -155.5h-94c0 102.667 27.833 176.334 83.5 221.001s138.5 67 248.5 67c103.333 0 185.166 -24 245.499 -72s90.5 -124.333 90.5 -229c0 -53.333 -13.5 -103.333 -40.5 -150
s-66.167 -82.667 -117.5 -108c124.667 -48 187 -151.667 187 -311c0 -124 -32.5 -214.667 -97.5 -272s-154.833 -86 -269.5 -86c-112.667 0 -197.834 23.833 -255.501 71.5s-86.5 128.167 -86.5 241.5z" />
    <glyph glyph-name="afii10074" unicode="&#x438;" horiz-adv-x="987" 
d="M119 8v1184h100v-993l88 163l484 830h83v-1184h-100v993l-149 -274l-418 -719h-88z" />
    <glyph glyph-name="afii10075" unicode="&#x439;" horiz-adv-x="987" 
d="M119 8v1184h100v-993l88 163l484 830h83v-1184h-100v993l-149 -274l-418 -719h-88zM272 1561h85.999c0 -48 14.167 -80.833 42.5 -98.5s68.833 -26.5 121.5 -26.5c52 0 91.5 8.66699 118.5 26s40.833 50.333 41.5 99h86c-3.33301 -140.667 -85.333 -211 -246 -211
c-163.333 0 -246.666 70.333 -249.999 211z" />
    <glyph glyph-name="afii10076" unicode="&#x43a;" horiz-adv-x="892" 
d="M115 0v1190h104v-522h107c22 0 41.333 3.5 58 10.5s30.167 15.5 40.5 25.5s20 24 29 42s15.833 34 20.5 48s10.667 33 18 57s13.333 42.667 18 56c30.667 82.667 50.334 132.334 59.001 149.001c35.333 72.667 81.666 116.334 138.999 131.001
c32.667 8 70.334 8.33301 113.001 1l-8 -90c-24.667 4 -46.667 3.66699 -66 -1s-34.833 -11 -46.5 -19s-22.834 -21.167 -33.501 -39.5s-18.5 -34 -23.5 -47s-11.833 -32.833 -20.5 -59.5s-15.667 -46.667 -21 -60c-6.66699 -17.333 -14.667 -42.5 -24 -75.5
s-17.333 -59 -24 -78s-17.667 -39.167 -33 -60.5s-34 -37.333 -56 -48l418 -610h-127l-385 573h-150v-573h-106z" />
    <glyph glyph-name="afii10077" unicode="&#x43b;" horiz-adv-x="997" 
d="M12 -4l4 96.002c36.667 -1.33301 68.5 4.83398 95.5 18.501s48.167 32.667 63.5 57s27.833 52.166 37.5 83.499s16 65 19 101s4.83301 71 5.5 105s0.666992 67 0 99c-0.666992 24 -1 41.333 -1 52v582h649v-1190h-101v1098h-448v-490
c0 -136.667 -4 -233.334 -12 -290.001c-24 -181.333 -96.667 -286 -218 -314c-28.667 -6.66699 -60 -9.33398 -94 -8.00098z" />
    <glyph glyph-name="afii10078" unicode="&#x43c;" horiz-adv-x="1110" 
d="M121 0v1190h88l221 -508l129 -326l125 316l227 518h86v-1190h-100v543l12 418l-336 -781h-32l-334 781l14 -418v-543h-100z" />
    <glyph glyph-name="afii10079" unicode="&#x43d;" horiz-adv-x="991" 
d="M121 0v1190h100v-528h557v528h101v-1190h-101v569h-557v-569h-100z" />
    <glyph glyph-name="afii10080" unicode="&#x43e;" horiz-adv-x="962" 
d="M102 434v328c0 111.333 14 200 42 266s69 112.5 123 139.5s125.333 40.5 214 40.5c66.667 0 122.834 -7 168.501 -21s84.667 -38.167 117 -72.5s56 -80.833 71 -139.5s22.5 -131.667 22.5 -219v-322c0 -162.667 -30.167 -278 -90.5 -346s-156.5 -102 -288.5 -102
c-66.667 0 -122.834 7 -168.501 21s-84.667 38 -117 72s-56 80 -71 138s-22.5 130.333 -22.5 217zM205 442c0 -69.333 3.33203 -124.83 9.99902 -166.497s19.834 -78.334 39.501 -110.001s47.667 -53.834 84 -66.501s83.833 -19 142.5 -19c107.333 0 180.333 27 219 81
s58 146.333 58 277v318c0 55.333 -2.16699 101 -6.5 137s-12 69 -23 99s-27 53.167 -48 69.5s-47.667 28.833 -80 37.5s-72.166 13 -119.499 13c-55.333 0 -100.833 -6.33301 -136.5 -19s-63.834 -33.834 -84.501 -63.501s-35 -65.5 -43 -107.5s-12 -96 -12 -162v-318z" />
    <glyph glyph-name="afii10081" unicode="&#x43f;" horiz-adv-x="993" 
d="M121 0v1190h760v-1190h-101v1098h-559v-1098h-100z" />
    <glyph glyph-name="afii10082" unicode="&#x440;" horiz-adv-x="1017" 
d="M135 -373v1579h90l11 -131c62 91.333 160.667 137 296 137c127.333 0 219.333 -33.167 276 -99.5s85 -177.166 85 -332.499v-387c0 -266 -126.333 -399 -379 -399c-63.333 0 -117 8.33301 -161 25s-82.333 43.667 -115 81v-473h-103zM238 409.999
c-1.33301 -117.333 17.501 -200.332 56.501 -248.999s112.167 -73 219.5 -73c54.667 0 100.167 6.5 136.5 19.5s64.666 33.167 84.999 60.5s34.666 59.166 42.999 95.499s12.5 80.833 12.5 133.5v381c0 88 -10.333 157 -31 207s-49.667 84.333 -87 103
s-87.666 28 -150.999 28c-101.333 -2 -174 -29 -218 -81s-66 -128.667 -66 -230v-395z" />
    <glyph glyph-name="afii10083" unicode="&#x441;" horiz-adv-x="946" 
d="M102 438l-0.00195312 317.999c0 162 31.333 277.167 94 345.5s160.334 102.5 293.001 102.5c126.667 0 217.167 -27.833 271.5 -83.5s84.166 -142.5 89.499 -260.5h-96c-2 39.333 -7.33301 73.166 -16 101.499s-22.5 54 -41.5 77s-45.833 40.333 -80.5 52
s-77 17.5 -127 17.5c-106.667 0 -180.667 -26.667 -222 -80s-62 -144 -62 -272v-312c0 -65.333 3.83301 -119 11.5 -161s21.5 -78.5 41.5 -109.5s48 -53.333 84 -67s82.333 -20.5 139 -20.5c55.333 0 101.333 5.83301 138 17.5s64.834 29.834 84.501 54.501
s33.334 52.334 41.001 83.001s12.167 69 13.5 115h96c0 -125.333 -30.833 -218.333 -92.5 -279s-155.167 -91 -280.5 -91c-131.333 0 -227.333 35 -288 105s-91 185.667 -91 347z" />
    <glyph glyph-name="afii10084" unicode="&#x442;" horiz-adv-x="786" 
d="M10 1096v94h760v-94h-330v-1096h-100v1096h-330z" />
    <glyph glyph-name="afii10085" unicode="&#x443;" horiz-adv-x="843" 
d="M31 1190h112l131 -483l162 -553h2l137 553l132 483h112l-393 -1419c-29.333 -106 -74.833 -175.5 -136.5 -208.5s-145.167 -32.5 -250.5 1.5l35 90c73.333 -24.667 127.833 -27.167 163.5 -7.5s65.167 65.167 88.5 136.5l55 211z" />
    <glyph glyph-name="afii10086" unicode="&#x444;" horiz-adv-x="1513" 
d="M102 391l-0.00195312 382.998c0 150.667 25.833 259.834 77.5 327.501s135.834 101.834 252.501 102.501c119.333 2 211 -41.667 275 -131v569h98v-569c62 89.333 154 133 276 131c114.667 -1.33301 198.334 -35.833 251.001 -103.5s79 -176.5 79 -326.5v-383
c0 -57.333 -6.83301 -110 -20.5 -158s-34.334 -90.5 -62.001 -127.5s-64.5 -65.5 -110.5 -85.5s-99 -28.667 -159 -26c-61.333 2 -110 10 -146 24s-72 41.333 -108 82v-471h-98v471c-36 -41.333 -71.667 -68.833 -107 -82.5s-83.666 -21.5 -144.999 -23.5
c-61.333 -2.66699 -115 6 -161 26s-82.833 48.5 -110.5 85.5s-48.167 79.5 -61.5 127.5s-20 100.667 -20 158zM200.998 394.998c0 -47.333 4.00098 -88.832 12.001 -124.499s21.167 -67.834 39.5 -96.501s44.5 -50.334 78.5 -65.001s75.333 -21.667 124 -21
c98 2 164.833 27.333 200.5 76s53.5 129.334 53.5 242.001v395c0 96.667 -22.833 173 -68.5 229s-111.834 82.667 -198.501 80c-90.667 -2 -153.5 -27.333 -188.5 -76s-52.5 -136 -52.5 -262v-377zM802.999 405.999c0 -112.667 18 -193.329 54 -241.996s103.333 -74 202 -76
c48 -0.666992 88.667 6.16602 122 20.499s59 36.166 77 65.499s30.667 61.666 38 96.999s11 76.666 11 123.999v377c0 126.667 -17 214.167 -51 262.5s-95.667 73.5 -185 75.5c-87.333 2.66699 -153.833 -23.833 -199.5 -79.5s-68.5 -132.167 -68.5 -229.5v-395z" />
    <glyph glyph-name="afii10087" unicode="&#x445;" horiz-adv-x="831" 
d="M18 0l334 618l-313 572h115l147 -272l113 -230l118 236l150 266h115l-322 -572l340 -618h-119l-164 309l-118 240l-127 -252l-156 -297h-113z" />
    <glyph glyph-name="afii10088" unicode="&#x446;" horiz-adv-x="1024" 
d="M121 0v1190h104v-1098h537v1098h100v-1098h113v-321h-96v229h-758z" />
    <glyph glyph-name="afii10089" unicode="&#x447;" horiz-adv-x="942" 
d="M90 817l0.000976562 373h105v-375c0 -66 3.5 -119.5 10.5 -160.5s20.167 -76.333 39.5 -106s46.333 -50.667 81 -63s79.667 -18.5 135 -18.5c91.333 0 158.5 23 201.5 69s64.5 122 64.5 228v426h102v-1190h-104v489c-22.667 -41.333 -59.334 -72.333 -110.001 -93
s-102 -31 -154 -31c-133.333 0 -228.5 34 -285.5 102s-85.5 184.667 -85.5 350z" />
    <glyph glyph-name="afii10090" unicode="&#x448;" horiz-adv-x="1433" 
d="M121 0v1190h102v-1098h453v1098h96v-1098h449v1098h100v-1190h-1200z" />
    <glyph glyph-name="afii10091" unicode="&#x449;" horiz-adv-x="1480" 
d="M121 0v1190h98v-1098h453v1098h98v-1098h449v1098h98v-1098h115v-321h-97v229h-1214z" />
    <glyph glyph-name="afii10092" unicode="&#x44a;" horiz-adv-x="1093" 
d="M2 1096v94h371v-477h262c250 0 375 -119.667 375 -359c0 -236 -125 -354 -375 -354h-365v1096h-268zM373 92l262 0.000976562c94 0 162.833 21.167 206.5 63.5s65.5 108.5 65.5 198.5c0 91.333 -21.833 158.166 -65.5 200.499s-112.5 63.5 -206.5 63.5h-262v-526z" />
    <glyph glyph-name="afii10093" unicode="&#x44b;" horiz-adv-x="1286" 
d="M121 0v1190h100v-477h262c251.333 0 377 -119.667 377 -359c0 -123.333 -32.333 -213.166 -97 -269.499s-158 -84.5 -280 -84.5h-362zM221 91.999l262 0.000976562c94.667 0 164.167 21.167 208.5 63.5s66.5 108.5 66.5 198.5c0 91.333 -22.167 158.166 -66.5 200.499
s-113.833 63.5 -208.5 63.5h-262v-526zM1073 0v1190h101v-1190h-101z" />
    <glyph glyph-name="afii10094" unicode="&#x44c;" horiz-adv-x="931" 
d="M123 0v1190h100v-477h262c251.333 0 377 -119.667 377 -359c0 -123.333 -32.333 -213.166 -97 -269.499s-158 -84.5 -280 -84.5h-362zM223 91.999l262 0.000976562c94.667 0 164.167 21.167 208.5 63.5s66.5 108.5 66.5 198.5c0 91.333 -22.167 158.166 -66.5 200.499
s-113.833 63.5 -208.5 63.5h-262v-526z" />
    <glyph glyph-name="afii10095" unicode="&#x44d;" horiz-adv-x="954" 
d="M102 354l97.001 0.00195312c1.33301 -45.333 5.83301 -83.333 13.5 -114s21.167 -58.5 40.5 -83.5s47.166 -43.333 83.499 -55s81.833 -17.5 136.5 -17.5c56.667 0 103 6.83301 139 20.5s64.167 36 84.5 67s34.333 67.5 42 109.5s11.5 95.667 11.5 161v117h-381v94h381
v101c0 128 -20.833 218.333 -62.5 271s-115.834 79 -222.501 79c-50.667 0 -93 -5.66699 -127 -17s-60.333 -28.5 -79 -51.5s-32.167 -48.333 -40.5 -76s-13.5 -61.5 -15.5 -101.5h-97c5.33301 117.333 35 203.666 89 258.999s144 83 270 83
c132.667 0 230.334 -34.167 293.001 -102.5s94 -182.833 94 -343.5v-318c0 -160.667 -30.333 -275.834 -91 -345.501s-156.667 -104.5 -288 -104.5c-124.667 0 -217.667 30.167 -279 90.5s-92 152.833 -92 277.5z" />
    <glyph glyph-name="afii10096" unicode="&#x44e;" horiz-adv-x="1302" 
d="M129 0l-0.00195312 1190h100v-528h224v96c0 112 14 200.833 42 266.5s68.833 112 122.5 139s124.834 40.5 213.501 40.5s159.667 -13 213 -39s94 -72.167 122 -138.5s42 -157.166 42 -272.499v-322c0 -162 -30 -276.833 -90 -344.5s-155.667 -101.5 -287 -101.5
c-89.333 0 -160.666 12.833 -213.999 38.5s-94 71.334 -122 137.001s-42 155.834 -42 270.501v135h-224v-567h-100zM552.998 439.997c0 -54.667 2.16992 -100.331 6.50293 -136.998s12.166 -70.334 23.499 -101.001s27.5 -54.5 48.5 -71.5s47.667 -30 80 -39
s72.166 -13.5 119.499 -13.5c106 0 178.333 27.167 217 81.5s58 146.5 58 276.5v318c0 68.667 -3.33301 123.667 -10 165s-20 77.166 -40 107.499s-47.833 51.5 -83.5 63.5s-82.834 18 -141.501 18c-107.333 0 -180.5 -26.167 -219.5 -78.5s-58.5 -143.5 -58.5 -273.5v-316z
" />
    <glyph glyph-name="afii10097" unicode="&#x44f;" horiz-adv-x="876" 
d="M51 0l247.999 480.997c-44 5.33301 -80.833 16.833 -110.5 34.5s-52.167 40.834 -67.5 69.501s-26 59.334 -32 92.001s-9 71.334 -9 116.001v47c0 58.667 4 108 12 148s22.333 76 43 108s50.334 55.667 89.001 71s87 23 145 23h395v-1190h-100v479h-256l-238 -479h-119z
M175.999 792.997c0 -43.333 2.16895 -77.6689 6.50195 -103.002s13.166 -47.666 26.499 -66.999s32.666 -32.833 57.999 -40.5s59.333 -11.5 102 -11.5h295v521h-295c-35.333 0 -65 -4 -89 -12s-42.833 -18.167 -56.5 -30.5s-24.167 -30.166 -31.5 -53.499
s-11.833 -46 -13.5 -68s-2.5 -51.333 -2.5 -88v-47z" />
    <glyph glyph-name="afii10071" unicode="&#x451;" horiz-adv-x="964" 
d="M109 438l0.00195312 322c0 161.333 30.167 277 90.5 347s156.166 105 287.499 105c135.333 0 230.666 -35.167 285.999 -105.5s83 -185.833 83 -346.5v-178h-649v-136c0 -128 19.833 -220 59.5 -276s113.167 -84 220.5 -84c53.333 0 97.666 5.66699 132.999 17
s62.333 28.333 81 51s31.5 47.5 38.5 74.5s10.5 59.5 10.5 97.5h92c0 -221.333 -118.333 -332 -355 -332c-131.333 0 -227.166 34 -287.499 102s-90.5 182 -90.5 342zM207.002 676h559v82c0 62.667 -3.5 114.5 -10.5 155.5s-20.167 78.667 -39.5 113
s-47.833 59.5 -85.5 75.5s-85.5 24 -143.5 24c-107.333 0 -180.833 -27.667 -220.5 -83s-59.5 -148.333 -59.5 -279v-88zM240.002 1446c0 22.667 7.83301 40.501 23.5 53.501s32.667 19.667 51 20s35.333 -6 51 -19s23.5 -31.167 23.5 -54.5
c0 -29.333 -12.333 -50.333 -37 -63s-49.5 -12.834 -74.5 -0.500977s-37.5 33.5 -37.5 63.5zM612.002 1446c0 22.667 7.83105 40.501 23.498 53.501s32.834 19.667 51.501 20s35.834 -6 51.501 -19s23.5 -31.167 23.5 -54.5c0 -29.333 -12.5 -50.333 -37.5 -63
s-50 -12.834 -75 -0.500977s-37.5 33.5 -37.5 63.5z" />
    <glyph glyph-name="afii10099" unicode="&#x452;" horiz-adv-x="1013" 
d="M-4 1321l0.00195312 86.0049h149v174h105v-174h254v-86h-254v-272c23.333 41.333 60.666 72.5 111.999 93.5s103.333 31.5 156 31.5c134 0 229.333 -34.333 286 -103s85 -186 85 -352v-522c0 -71.333 -3.83301 -130 -11.5 -176s-21.667 -85.833 -42 -119.5
s-48.833 -57.334 -85.5 -71.001s-83.334 -19.167 -140.001 -16.5v94c50 -0.666992 86.667 5.66602 110 18.999s40.166 39.666 50.499 78.999s15.5 100.666 15.5 183.999v531c0 53.333 -2.16699 98.166 -6.5 134.499s-12.333 69.333 -24 99s-27.667 53 -48 70s-46 30 -77 39
s-68.5 13.5 -112.5 13.5c-91.333 0 -158.666 -22 -201.999 -66s-66 -116.667 -68 -218v-793h-103v1321h-149z" />
    <glyph glyph-name="afii10100" unicode="&#x453;" horiz-adv-x="712" 
d="M125 0h102v1092h447v98h-549v-1190zM340 1337v11l94 223h111v-6l-123 -228h-82z" />
    <glyph glyph-name="afii10101" unicode="&#x454;" horiz-adv-x="954" 
d="M111 436l-0.000976562 318c0 160.667 31.333 275.167 94 343.5s160.334 102.5 293.001 102.5c126 0 215.833 -27.667 269.5 -83s83.167 -141.666 88.5 -258.999h-96c-2 40 -7.16699 73.833 -15.5 101.5s-21.833 53 -40.5 76s-45 40.167 -79 51.5s-76.333 17 -127 17
c-106.667 0 -180.834 -26.333 -222.501 -79s-62.5 -143 -62.5 -271v-101h381v-94h-381v-117c0 -65.333 3.83301 -119 11.5 -161s21.5 -78.5 41.5 -109.5s48 -53.333 84 -67s82.333 -20.5 139 -20.5c44 0 82.167 4.16699 114.5 12.5s58.5 19.666 78.5 33.999
s36 33.166 48 56.499s20.5 48 25.5 74s7.83301 57 8.5 93h96c0 -124.667 -30.667 -217.167 -92 -277.5s-154.333 -90.5 -279 -90.5c-131.333 0 -227.166 34.833 -287.499 104.5s-90.5 184.834 -90.5 345.501z" />
    <glyph glyph-name="afii10102" unicode="&#x455;" horiz-adv-x="909" 
d="M78 334l101.999 0.00195312c0 -161.333 94.333 -242 283 -242c90.667 0 159.334 21.167 206.001 63.5s70 102.5 70 180.5c0 28 -3 53.167 -9 75.5s-13.667 41 -23 56s-22.166 28.333 -38.499 40s-31.833 21 -46.5 28s-33.834 13.167 -57.501 18.5s-44 9.33301 -61 12
s-38.833 5.66699 -65.5 9l-13.5 1.5c-3 0.333008 -7 0.833008 -12 1.5s-9.5 1.33398 -13.5 2.00098c-38 4.66699 -69.833 9.83398 -95.5 15.501s-53.667 15.667 -84 30s-54.666 32 -72.999 53s-33.666 49.667 -45.999 86s-18.5 79.166 -18.5 128.499
c0 100 31.833 178.167 95.5 234.5s155.5 84.5 275.5 84.5c241.333 0 362 -105.667 362 -317h-100c-2 74.667 -23.5 130.167 -64.5 166.5s-106.167 54.5 -195.5 54.5s-155.833 -19.333 -199.5 -58s-65.5 -93 -65.5 -163c0 -26.667 2.66699 -50.667 8 -72
s11.666 -39.166 18.999 -53.499s18.5 -27.166 33.5 -38.499s28.333 -20 40 -26s28.667 -11.5 51 -16.5s40.166 -8.5 53.499 -10.5s33.333 -4.66699 60 -8c14 -2 24.667 -3.33301 32 -4c30 -4.66699 55 -8.83398 75 -12.501s43.833 -9.33398 71.5 -17.001
s50.5 -16.334 68.5 -26.001s37 -22.834 57 -39.501s35.667 -35.334 47 -56.001s20.833 -46.167 28.5 -76.5s11.5 -63.833 11.5 -100.5c0 -108 -32 -192.333 -96 -253s-159.667 -91 -287 -91c-256.667 0 -385 113.333 -385 340z" />
    <glyph glyph-name="afii10103" unicode="&#x456;" horiz-adv-x="407" 
d="M129 1511c0 22.667 7.83301 40.5 23.5 53.5s33.167 19.667 52.5 20s36.833 -6 52.5 -19s23.5 -31.167 23.5 -54.5c0 -22.667 -7.83301 -40.5 -23.5 -53.5s-33.167 -19.667 -52.5 -20s-36.833 6 -52.5 19s-23.5 31.167 -23.5 54.5zM158 0v1208h100v-1208h-100z" />
    <glyph glyph-name="afii10104" unicode="&#x457;" horiz-adv-x="417" 
d="M-2 1505c0 22.667 7.83301 40.501 23.5 53.501s32.667 19.667 51 20s35.333 -6 51 -19s23.5 -31.167 23.5 -54.5c0 -29.333 -12.333 -50.333 -37 -63s-49.5 -12.834 -74.5 -0.500977s-37.5 33.5 -37.5 63.5zM158 0.000976562v1208h100v-1208h-100zM268 1505
c0 22.667 7.83105 40.501 23.498 53.501s32.834 19.667 51.501 20s35.834 -6 51.501 -19s23.5 -31.167 23.5 -54.5c0 -29.333 -12.5 -50.333 -37.5 -63s-50 -12.834 -75 -0.500977s-37.5 33.5 -37.5 63.5z" />
    <glyph glyph-name="afii10105" unicode="&#x458;" horiz-adv-x="421" 
d="M2 -279c50 -0.666992 86.6689 5.66797 110.002 19.001s40.166 39.833 50.499 79.5s15.5 101.167 15.5 184.5v1204h103v-1198c0 -71.333 -3.83301 -130 -11.5 -176s-21.667 -85.833 -42 -119.5s-48.833 -57.334 -85.5 -71.001s-83.334 -19.167 -140.001 -16.5v94z
M152.002 1526c0 22.667 7.83301 40.5 23.5 53.5s33 19.667 52 20s36.333 -6 52 -19s23.5 -31.167 23.5 -54.5c0 -22.667 -7.83301 -40.5 -23.5 -53.5s-33 -19.667 -52 -20s-36.333 6 -52 19s-23.5 31.167 -23.5 54.5z" />
    <glyph glyph-name="afii10106" unicode="&#x459;" horiz-adv-x="1452" 
d="M8 -4l4 96.002c24.667 -0.666992 47 2 67 8s37.333 14.167 52 24.5s27.5 24.333 38.5 42s20.167 34.834 27.5 51.501s13.5 37.667 18.5 63s8.5 47.333 10.5 66s3.5 42.167 4.5 70.5s1.5 50.833 1.5 67.5s-0.166992 38.667 -0.5 66s-0.5 46.333 -0.5 57v582h560v-510h182
c123.333 0 217 -25.833 281 -77.5s96 -138.5 96 -260.5c0 -122.667 -32 -210.334 -96 -263.001s-157.667 -79 -281 -79h-283v1098h-358v-490c0 -136.667 -4 -233.334 -12 -290.001c-24 -181.333 -96.667 -286 -218 -314c-28.667 -6.66699 -60 -9.33398 -94 -8.00098z
M791 92.002h182c96 0 165.667 19.333 209 58s65 102.667 65 192s-21.5 152.333 -64.5 189s-112.833 55 -209.5 55h-182v-494z" />
    <glyph glyph-name="afii10107" unicode="&#x45a;" horiz-adv-x="1413" 
d="M121 0v1190h100v-514h463v514h100v-510h183c123.333 0 216.833 -25.667 280.5 -77s95.5 -138.333 95.5 -261s-32 -210.334 -96 -263.001s-157.333 -79 -280 -79h-283v584h-463v-584h-100zM784 92.001h183c96 0 165.667 19.333 209 58s65 102.667 65 192
s-21.5 152.333 -64.5 189s-112.833 55 -209.5 55h-183v-494z" />
    <glyph glyph-name="afii10108" unicode="&#x45b;" horiz-adv-x="1013" 
d="M-4 1321v86.001h149v174h105v-174h254v-86h-254v-272c23.333 41.333 60.666 72.5 111.999 93.5s103.333 31.5 156 31.5c134 0 229.333 -34.333 286 -103s85 -186 85 -352v-719h-103v721c0 53.333 -2.16699 98.166 -6.5 134.499s-12.333 69.333 -24 99s-27.667 53 -48 70
s-46 30 -77 39s-68.5 13.5 -112.5 13.5c-91.333 0 -158.666 -22 -201.999 -66s-66 -116.667 -68 -218v-793h-103v1321h-149z" />
    <glyph glyph-name="afii10109" unicode="&#x45c;" horiz-adv-x="892" 
d="M115 0v1190h104v-522h107c22 0 41.333 3.5 58 10.5s30.167 15.5 40.5 25.5s20 24 29 42s15.833 34 20.5 48s10.667 33 18 57s13.333 42.667 18 56c30.667 82.667 50.334 132.334 59.001 149.001c35.333 72.667 81.666 116.334 138.999 131.001
c32.667 8 70.334 8.33301 113.001 1l-8 -90c-24.667 4 -46.667 3.66699 -66 -1s-34.833 -11 -46.5 -19s-22.834 -21.167 -33.501 -39.5s-18.5 -34 -23.5 -47s-11.833 -32.833 -20.5 -59.5s-15.667 -46.667 -21 -60c-6.66699 -17.333 -14.667 -42.5 -24 -75.5
s-17.333 -59 -24 -78s-17.667 -39.167 -33 -60.5s-34 -37.333 -56 -48l418 -610h-127l-385 573h-150v-573h-106zM383 1337v11l94 223h111v-6l-123 -228h-82z" />
    <glyph glyph-name="afii10110" unicode="&#x45e;" horiz-adv-x="843" 
d="M31 1190h112l131 -483l162 -553h2l137 553l132 483h112l-393 -1419c-29.333 -106 -74.833 -175.5 -136.5 -208.5s-145.167 -32.5 -250.5 1.5l35 90c73.333 -24.667 127.833 -27.167 163.5 -7.5s65.167 65.167 88.5 136.5l55 211zM168 1567l87.998 2
c0 -50.667 15 -85.5 45 -104.5s72.333 -28.5 127 -28.5c52.667 0 93.334 9.66699 122.001 29s43.334 54 44.001 104l88 -2c-2 -149.333 -86.667 -224 -254 -224c-169.333 0 -256 74.667 -260 224z" />
    <glyph glyph-name="afii10193" unicode="&#x45f;" horiz-adv-x="993" 
d="M119 0v1190h100v-1098h559v1098h101v-1190h-328v-170h-96v170h-336z" />
    <glyph glyph-name="afii10050" unicode="&#x490;" horiz-adv-x="813" 
d="M143 0v1581h527v160h94v-256h-518v-1485h-103z" />
    <glyph glyph-name="afii10098" unicode="&#x491;" horiz-adv-x="712" 
d="M125 0v1190h459v141h90v-239h-447v-1092h-102z" />
    <glyph glyph-name="endash" unicode="&#x2013;" horiz-adv-x="1073" 
d="M72 580v88h909v-88h-909z" />
    <glyph glyph-name="emdash" unicode="&#x2014;" horiz-adv-x="1347" 
d="M72 580v88h1175v-88h-1175z" />
    <glyph glyph-name="quoteleft" unicode="&#x2018;" horiz-adv-x="382" 
d="M86 1239l121 342h86l-105 -342h-102z" />
    <glyph glyph-name="quoteright" unicode="&#x2019;" horiz-adv-x="356" 
d="M84 1237l104 342h103l-121 -342h-86z" />
    <glyph glyph-name="quotesinglbase" unicode="&#x201a;" horiz-adv-x="317" 
d="M18 -203c46 24.667 76 56.499 90 95.499s18.333 102.167 13 189.5h102c0 -74 -4 -129.833 -12 -167.5s-23.167 -70.167 -45.5 -97.5s-58.5 -55.666 -108.5 -84.999z" />
    <glyph glyph-name="quotedblleft" unicode="&#x201c;" horiz-adv-x="546" 
d="M90 1239l117 342h84l-105 -342h-96zM293 1239l117 342h84l-103 -342h-98z" />
    <glyph glyph-name="quotedblright" unicode="&#x201d;" horiz-adv-x="544" 
d="M88 1237l102 342h99l-117 -342h-84zM291 1237l104 342h97l-117 -342h-84z" />
    <glyph glyph-name="quotedblbase" unicode="&#x201e;" horiz-adv-x="587" 
d="M18 -203c46.667 24.667 78 56.999 94 96.999s21.667 102.667 17 188h94c0 -74 -4 -129.833 -12 -167.5s-23.167 -70.167 -45.5 -97.5s-58.5 -55.666 -108.5 -84.999zM258 -203.001c46.667 24.667 77.668 56.832 93.001 96.499s20.666 102.5 15.999 188.5h96
c0 -74 -4 -129.833 -12 -167.5s-23.167 -70.167 -45.5 -97.5s-58.5 -55.666 -108.5 -84.999z" />
    <glyph glyph-name="bullet" unicode="&#x2022;" horiz-adv-x="538" 
d="M113 664c0 49.333 16 89.167 48 119.5s72.667 45.5 122 45.5c48 0 87.667 -15.333 119 -46s47 -71 47 -121c0 -48.667 -15.833 -88.167 -47.5 -118.5s-71.167 -45.5 -118.5 -45.5c-49.333 0 -90 15.333 -122 46s-48 70.667 -48 120z" />
    <glyph glyph-name="ellipsis" unicode="&#x2026;" horiz-adv-x="1011" 
d="M104 68c0 22.667 8 40.5 24 53.5s33.333 19.667 52 20s36 -6 52 -19s24 -31.167 24 -54.5c0 -22.667 -8 -40.5 -24 -53.5s-33.333 -19.667 -52 -20s-36 6 -52 19s-24 31.167 -24 54.5zM416 68c0 22.667 7.83301 40.5 23.5 53.5s33 19.667 52 20s36.333 -6 52 -19
s23.5 -31.167 23.5 -54.5c0 -22.667 -7.83301 -40.5 -23.5 -53.5s-33 -19.667 -52 -20s-36.333 6 -52 19s-23.5 31.167 -23.5 54.5zM727 68c0 22.667 7.83301 40.5 23.5 53.5s33.167 19.667 52.5 20s36.833 -6 52.5 -19s23.5 -31.167 23.5 -54.5
c0 -22.667 -7.83301 -40.5 -23.5 -53.5s-33.167 -19.667 -52.5 -20s-36.833 6 -52.5 19s-23.5 31.167 -23.5 54.5z" />
    <glyph glyph-name="guilsinglleft" unicode="&#x2039;" horiz-adv-x="565" 
d="M76 657l282 451h109l-281 -451l281 -452h-109z" />
    <glyph glyph-name="guilsinglright" unicode="&#x203a;" horiz-adv-x="565" 
d="M86 205l281 452l-281 451h109l282 -451l-282 -452h-109z" />
    <glyph glyph-name="Euro" unicode="&#x20ac;" horiz-adv-x="1060" 
d="M68 608l0.00585938 92.001h139v160h-139v92h139v135c0 74.667 10.667 143 32 205s50.166 113.833 86.499 155.5s79.166 75.334 128.499 101.001s101.5 41 156.5 46s112.333 0.166992 172 -14.5s117.5 -39.667 173.5 -75l-47 -75c-57.333 35.333 -115.5 58.333 -174.5 69
s-113.5 8.66699 -163.5 -6s-94.833 -39.167 -134.5 -73.5s-70.834 -79.833 -93.501 -136.5s-34 -120.334 -34 -191.001v-140h439v-92h-439v-160h439v-92h-439v-125c0 -186.667 57.333 -312.5 172 -377.5s267.667 -55.167 459 29.5l43 -88
c-66.667 -28.667 -131.834 -49.334 -195.501 -62.001s-124.334 -17 -182.001 -13s-110.834 17.667 -159.501 41s-90.667 55.5 -126 96.5s-63 93.5 -83 157.5s-30 137.333 -30 220v121h-139z" />
    <glyph glyph-name="trademark" unicode="&#x2122;" horiz-adv-x="929" 
d="M41 1540v43h309v-43h-131v-584h-47v584h-131zM449 954v631h79l107 -411l106 411h82v-631h-47v574l-117 -451h-47l-116 449v-572h-47z" />
    <glyph glyph-name="uniE000" unicode="&#xe000;" horiz-adv-x="1187" 
d="M0 0v1188h1188v-1188h-1188z" />
    <glyph glyph-name="glyph2" horiz-adv-x="682" 
 />
    </font>
</defs>
</svg>
